Reactor_FB-Derelict.ufo
<glyph name="exclam" format="1">
  <advance width="300"/>
  <unicode hex="0021"/>
  <outline>
    <contour>
      <point x="221" y="483" type="line"/>
      <point x="216" y="456" type="line"/>
      <point x="219" y="443" type="line"/>
      <point x="211" y="433" type="line"/>
      <point x="215" y="401" type="line"/>
      <point x="210" y="365" type="line"/>
      <point x="214" y="347" type="line"/>
      <point x="219" y="343" type="line"/>
      <point x="214" y="333" type="line"/>
      <point x="216" y="313" type="line"/>
      <point x="211" y="304" type="line"/>
      <point x="214" y="290" type="line"/>
      <point x="208" y="286" type="line"/>
      <point x="201" y="311" type="line"/>
      <point x="205" y="339" type="line"/>
      <point x="198" y="367" type="line"/>
      <point x="205" y="377" type="line"/>
      <point x="199" y="384" type="line"/>
      <point x="205" y="407" type="line"/>
      <point x="194" y="425" type="line"/>
      <point x="200" y="439" type="line"/>
      <point x="188" y="447" type="line"/>
      <point x="177" y="440" type="line"/>
      <point x="168" y="427" type="line"/>
      <point x="172" y="404" type="line"/>
      <point x="168" y="381" type="line"/>
      <point x="172" y="363" type="line"/>
      <point x="168" y="347" type="line"/>
      <point x="174" y="341" type="line"/>
      <point x="172" y="321" type="line"/>
      <point x="164" y="304" type="line"/>
      <point x="173" y="294" type="line"/>
      <point x="173" y="279" type="line"/>
      <point x="162" y="257" type="line"/>
      <point x="169" y="249" type="line"/>
      <point x="165" y="231" type="line"/>
      <point x="158" y="223" type="line"/>
      <point x="161" y="211" type="line"/>
      <point x="155" y="200" type="line"/>
      <point x="156" y="185" type="line"/>
      <point x="146" y="183" type="line"/>
      <point x="138" y="197" type="line"/>
      <point x="134" y="214" type="line"/>
      <point x="131" y="231" type="line"/>
      <point x="123" y="235" type="line"/>
      <point x="127" y="262" type="line"/>
      <point x="124" y="275" type="line"/>
      <point x="126" y="297" type="line"/>
      <point x="119" y="299" type="line"/>
      <point x="124" y="307" type="line"/>
      <point x="121" y="332" type="line"/>
      <point x="124" y="354" type="line"/>
      <point x="119" y="367" type="line"/>
      <point x="122" y="390" type="line"/>
      <point x="126" y="404" type="line"/>
      <point x="119" y="409" type="line"/>
      <point x="122" y="426" type="line"/>
      <point x="119" y="443" type="line"/>
      <point x="122" y="451" type="line"/>
      <point x="109" y="454" type="line"/>
      <point x="100" y="445" type="line"/>
      <point x="95" y="427" type="line"/>
      <point x="100" y="419" type="line"/>
      <point x="96" y="396" type="line"/>
      <point x="100" y="377" type="line"/>
      <point x="96" y="361" type="line"/>
      <point x="98" y="336" type="line"/>
      <point x="86" y="319" type="line"/>
      <point x="87" y="343" type="line"/>
      <point x="80" y="353" type="line"/>
      <point x="85" y="390" type="line"/>
      <point x="82" y="428" type="line"/>
      <point x="86" y="443" type="line"/>
      <point x="78" y="456" type="line"/>
      <point x="76" y="474" type="line"/>
      <point x="83" y="490" type="line"/>
      <point x="86" y="521" type="line"/>
      <point x="82" y="536" type="line"/>
      <point x="74" y="542" type="line"/>
      <point x="72" y="560" type="line"/>
      <point x="81" y="563" type="line"/>
      <point x="74" y="572" type="line"/>
      <point x="88" y="587" type="line"/>
      <point x="92" y="608" type="line"/>
      <point x="82" y="616" type="line"/>
      <point x="83" y="631" type="line"/>
      <point x="100" y="644" type="line"/>
      <point x="114" y="642" type="line"/>
      <point x="129" y="654" type="line"/>
      <point x="142" y="657" type="line"/>
      <point x="155" y="667" type="line"/>
      <point x="164" y="660" type="line"/>
      <point x="170" y="643" type="line"/>
      <point x="180" y="640" type="line"/>
      <point x="185" y="650" type="line"/>
      <point x="200" y="642" type="line"/>
      <point x="201" y="631" type="line"/>
      <point x="207" y="621" type="line"/>
      <point x="198" y="604" type="line"/>
      <point x="206" y="592" type="line"/>
      <point x="217" y="590" type="line"/>
      <point x="214" y="564" type="line"/>
      <point x="221" y="539" type="line"/>
      <point x="214" y="521" type="line"/>
      <point x="219" y="507" type="line"/>
      <point x="216" y="487" type="line"/>
    </contour>
    <contour>
      <point x="214" y="262" type="line"/>
      <point x="210" y="247" type="line"/>
      <point x="206" y="259" type="line"/>
      <point x="200" y="264" type="line"/>
      <point x="206" y="277" type="line"/>
      <point x="213" y="273" type="line"/>
    </contour>
    <contour>
      <point x="197" y="23" type="line"/>
      <point x="192" y="10" type="line"/>
      <point x="181" y="6" type="line"/>
      <point x="174" y="-7" type="line"/>
      <point x="165" y="-5" type="line"/>
      <point x="144" y="-10" type="line"/>
      <point x="135" y="-19" type="line"/>
      <point x="131" y="-9" type="line"/>
      <point x="113" y="-2" type="line"/>
      <point x="117" y="16" type="line"/>
      <point x="110" y="27" type="line"/>
      <point x="119" y="30" type="line"/>
      <point x="131" y="49" type="line"/>
      <point x="147" y="55" type="line"/>
      <point x="152" y="65" type="line"/>
      <point x="171" y="57" type="line"/>
      <point x="177" y="62" type="line"/>
      <point x="185" y="53" type="line"/>
      <point x="181" y="43" type="line"/>
      <point x="192" y="43" type="line"/>
    </contour>
  </outline>
</glyph>
<glyph name="quotedbl" format="1">
  <advance width="420"/>
  <unicode hex="0022"/>
  <outline>
    <contour>
      <point x="368" y="548" type="line"/>
      <point x="360" y="535" type="line"/>
      <point x="359" y="519" type="line"/>
      <point x="352" y="514" type="line"/>
      <point x="353" y="491" type="line"/>
      <point x="358" y="478" type="line"/>
      <point x="349" y="466" type="line"/>
      <point x="345" y="443" type="line"/>
      <point x="337" y="444" type="line"/>
      <point x="326" y="431" type="line"/>
      <point x="322" y="408" type="line"/>
      <point x="327" y="398" type="line"/>
      <point x="325" y="387" type="line"/>
      <point x="308" y="379" type="line"/>
      <point x="300" y="388" type="line"/>
      <point x="280" y="388" type="line"/>
      <point x="271" y="399" type="line"/>
      <point x="268" y="418" type="line"/>
      <point x="262" y="420" type="line"/>
      <point x="260" y="434" type="line"/>
      <point x="268" y="452" type="line"/>
      <point x="264" y="467" type="line"/>
      <point x="254" y="468" type="line"/>
      <point x="247" y="478" type="line"/>
      <point x="250" y="490" type="line"/>
      <point x="248" y="510" type="line"/>
      <point x="242" y="513" type="line"/>
      <point x="239" y="534" type="line"/>
      <point x="231" y="545" type="line"/>
      <point x="232" y="569" type="line"/>
      <point x="240" y="578" type="line"/>
      <point x="239" y="593" type="line"/>
      <point x="249" y="607" type="line"/>
      <point x="249" y="625" type="line"/>
      <point x="270" y="624" type="line"/>
      <point x="283" y="631" type="line"/>
      <point x="283" y="646" type="line"/>
      <point x="299" y="641" type="line"/>
      <point x="306" y="647" type="line"/>
      <point x="325" y="637" type="line"/>
      <point x="332" y="637" type="line"/>
      <point x="329" y="628" type="line"/>
      <point x="340" y="610" type="line"/>
      <point x="358" y="601" type="line"/>
      <point x="354" y="583" type="line"/>
      <point x="357" y="563" type="line"/>
    </contour>
    <contour>
      <point x="193" y="585" type="line"/>
      <point x="184" y="576" type="line"/>
      <point x="182" y="562" type="line"/>
      <point x="170" y="556" type="line"/>
      <point x="173" y="536" type="line"/>
      <point x="164" y="512" type="line"/>
      <point x="169" y="503" type="line"/>
      <point x="165" y="486" type="line"/>
      <point x="166" y="466" type="line"/>
      <point x="153" y="459" type="line"/>
      <point x="146" y="441" type="line"/>
      <point x="150" y="434" type="line"/>
      <point x="142" y="422" type="line"/>
      <point x="145" y="402" type="line"/>
      <point x="137" y="398" type="line"/>
      <point x="134" y="388" type="line"/>
      <point x="119" y="385" type="line"/>
      <point x="110" y="397" type="line"/>
      <point x="92" y="403" type="line"/>
      <point x="84" y="413" type="line"/>
      <point x="88" y="422" type="line"/>
      <point x="76" y="431" type="line"/>
      <point x="80" y="437" type="line"/>
      <point x="77" y="463" type="line"/>
      <point x="69" y="484" type="line"/>
      <point x="76" y="490" type="line"/>
      <point x="67" y="509" type="line"/>
      <point x="70" y="528" type="line"/>
      <point x="65" y="548" type="line"/>
      <point x="58" y="551" type="line"/>
      <point x="54" y="570" type="line"/>
      <point x="63" y="579" type="line"/>
      <point x="60" y="592" type="line"/>
      <point x="64" y="610" type="line"/>
      <point x="58" y="617" type="line"/>
      <point x="74" y="619" type="line"/>
      <point x="75" y="636" type="line"/>
      <point x="86" y="641" type="line"/>
      <point x="98" y="633" type="line"/>
      <point x="115" y="641" type="line"/>
      <point x="120" y="652" type="line"/>
      <point x="130" y="645" type="line"/>
      <point x="135" y="625" type="line"/>
      <point x="148" y="617" type="line"/>
      <point x="163" y="622" type="line"/>
      <point x="162" y="613" type="line"/>
      <point x="176" y="597" type="line"/>
      <point x="187" y="598" type="line"/>
    </contour>
  </outline>
</glyph>
<glyph name="dollar" format="1">
  <advance width="455"/>
  <unicode hex="0024"/>
  <outline>
    <contour>
      <point x="422" y="148" type="line"/>
      <point x="409" y="121" type="line"/>
      <point x="414" y="110" type="line"/>
      <point x="400" y="97" type="line"/>
      <point x="400" y="81" type="line"/>
      <point x="378" y="58" type="line"/>
      <point x="381" y="53" type="line"/>
      <point x="368" y="46" type="line"/>
      <point x="360" y="32" type="line"/>
      <point x="329" y="28" type="line"/>
      <point x="323" y="19" type="line"/>
      <point x="308" y="10" type="line"/>
      <point x="305" y="13" type="line"/>
      <point x="289" y="-4" type="line"/>
      <point x="290" y="-18" type="line"/>
      <point x="262" y="-21" type="line"/>
      <point x="261" y="-28" type="line"/>
      <point x="251" y="-26" type="line"/>
      <point x="242" y="-48" type="line"/>
      <point x="240" y="-42" type="line"/>
      <point x="226" y="-49" type="line"/>
      <point x="213" y="-37" type="line"/>
      <point x="197" y="-35" type="line"/>
      <point x="190" y="-41" type="line"/>
      <point x="175" y="-27" type="line"/>
      <point x="173" y="-14" type="line"/>
      <point x="161" y="-9" type="line"/>
      <point x="156" y="-13" type="line"/>
      <point x="136" y="5" type="line"/>
      <point x="130" y="0" type="line"/>
      <point x="122" y="15" type="line"/>
      <point x="100" y="14" type="line"/>
      <point x="90" y="24" type="line"/>
      <point x="87" y="17" type="line"/>
      <point x="80" y="24" type="line"/>
      <point x="68" y="26" type="line"/>
      <point x="65" y="33" type="line"/>
      <point x="58" y="39" type="line"/>
      <point x="63" y="42" type="line"/>
      <point x="72" y="40" type="line"/>
      <point x="77" y="44" type="line"/>
      <point x="90" y="45" type="line"/>
      <point x="108" y="35" type="line"/>
      <point x="109" y="43" type="line"/>
      <point x="127" y="34" type="line"/>
      <point x="157" y="44" type="line"/>
      <point x="164" y="36" type="line"/>
      <point x="175" y="38" type="line"/>
      <point x="183" y="48" type="line"/>
      <point x="185" y="56" type="line"/>
      <point x="173" y="66" type="line"/>
      <point x="155" y="69" type="line"/>
      <point x="157" y="73" type="line"/>
      <point x="189" y="76" type="line"/>
      <point x="192" y="81" type="line"/>
      <point x="205" y="77" type="line"/>
      <point x="215" y="85" type="line"/>
      <point x="219" y="97" type="line"/>
      <point x="230" y="112" type="line"/>
      <point x="233" y="131" type="line"/>
      <point x="229" y="136" type="line"/>
      <point x="235" y="155" type="line"/>
      <point x="240" y="157" type="line"/>
      <point x="242" y="148" type="line"/>
      <point x="243" y="124" type="line"/>
      <point x="248" y="115" type="line"/>
      <point x="252" y="113" type="line"/>
      <point x="258" y="92" type="line"/>
      <point x="266" y="87" type="line"/>
      <point x="272" y="94" type="line"/>
      <point x="271" y="106" type="line"/>
      <point x="275" y="114" type="line"/>
      <point x="279" y="113" type="line"/>
      <point x="289" y="125" type="line"/>
      <point x="284" y="147" type="line"/>
      <point x="290" y="161" type="line"/>
      <point x="285" y="163" type="line"/>
      <point x="273" y="159" type="line"/>
      <point x="277" y="166" type="line"/>
      <point x="265" y="183" type="line"/>
      <point x="261" y="199" type="line"/>
      <point x="251" y="206" type="line"/>
      <point x="246" y="202" type="line"/>
      <point x="242" y="176" type="line"/>
      <point x="239" y="174" type="line"/>
      <point x="232" y="184" type="line"/>
      <point x="233" y="195" type="line"/>
      <point x="222" y="209" type="line"/>
      <point x="221" y="225" type="line"/>
      <point x="223" y="242" type="line"/>
      <point x="218" y="260" type="line"/>
      <point x="210" y="261" type="line"/>
      <point x="201" y="278" type="line"/>
      <point x="196" y="280" type="line"/>
      <point x="180" y="308" type="line"/>
      <point x="173" y="313" type="line"/>
      <point x="178" y="317" type="line"/>
      <point x="177" y="324" type="line"/>
      <point x="159" y="329" type="line"/>
      <point x="147" y="357" type="line"/>
      <point x="137" y="350" type="line"/>
      <point x="130" y="364" type="line"/>
      <point x="112" y="376" type="line"/>
      <point x="110" y="371" type="line"/>
      <point x="120" y="349" type="line"/>
      <point x="116" y="346" type="line"/>
      <point x="111" y="350" type="line"/>
      <point x="106" y="360" type="line"/>
      <point x="93" y="368" type="line"/>
      <point x="82" y="393" type="line"/>
      <point x="73" y="400" type="line"/>
      <point x="74" y="409" type="line"/>
      <point x="66" y="427" type="line"/>
      <point x="50" y="435" type="line"/>
      <point x="43" y="454" type="line"/>
      <point x="44" y="466" type="line"/>
      <point x="40" y="468" type="line"/>
      <point x="48" y="492" type="line"/>
      <point x="42" y="499" type="line"/>
      <point x="52" y="512" type="line"/>
      <point x="59" y="538" type="line"/>
      <point x="56" y="545" type="line"/>
      <point x="82" y="556" type="line"/>
      <point x="85" y="576" type="line"/>
      <point x="93" y="579" type="line"/>
      <point x="93" y="596" type="line"/>
      <point x="114" y="605" type="line"/>
      <point x="111" y="607" type="line"/>
      <point x="129" y="622" type="line"/>
      <point x="131" y="636" type="line"/>
      <point x="152" y="643" type="line"/>
      <point x="165" y="642" type="line"/>
      <point x="193" y="663" type="line"/>
      <point x="196" y="654" type="line"/>
      <point x="204" y="663" type="line"/>
      <point x="218" y="665" type="line"/>
      <point x="230" y="671" type="line"/>
      <point x="249" y="666" type="line"/>
      <point x="258" y="659" type="line"/>
      <point x="283" y="655" type="line"/>
      <point x="287" y="663" type="line"/>
      <point x="303" y="647" type="line"/>
      <point x="301" y="635" type="line"/>
      <point x="307" y="621" type="line"/>
      <point x="321" y="609" type="line"/>
      <point x="334" y="604" type="line"/>
      <point x="338" y="598" type="line"/>
      <point x="313" y="595" type="line"/>
      <point x="301" y="585" type="line"/>
      <point x="294" y="573" type="line"/>
      <point x="298" y="564" type="line"/>
      <point x="293" y="549" type="line"/>
      <point x="285" y="555" type="line"/>
      <point x="264" y="540" type="line"/>
      <point x="259" y="543" type="line"/>
      <point x="249" y="536" type="line"/>
      <point x="240" y="518" type="line"/>
      <point x="241" y="512" type="line"/>
      <point x="233" y="494" type="line"/>
      <point x="235" y="474" type="line"/>
      <point x="238" y="466" type="line"/>
      <point x="236" y="447" type="line"/>
      <point x="239" y="425" type="line"/>
      <point x="249" y="410" type="line"/>
      <point x="246" y="407" type="line"/>
      <point x="266" y="389" type="line"/>
      <point x="264" y="364" type="line"/>
      <point x="275" y="357" type="line"/>
      <point x="289" y="325" type="line"/>
      <point x="300" y="322" type="line"/>
      <point x="300" y="308" type="line"/>
      <point x="326" y="293" type="line"/>
      <point x="322" y="286" type="line"/>
      <point x="331" y="280" type="line"/>
      <point x="333" y="259" type="line"/>
      <point x="352" y="250" type="line"/>
      <point x="360" y="251" type="line"/>
      <point x="373" y="235" type="line"/>
      <point x="384" y="232" type="line"/>
      <point x="383" y="225" type="line"/>
      <point x="396" y="193" type="line"/>
      <point x="410" y="187" type="line"/>
      <point x="418" y="171" type="line"/>
      <point x="416" y="169" type="line"/>
    </contour>
    <contour>
      <point x="226" y="479" type="line"/>
      <point x="220" y="497" type="line"/>
      <point x="218" y="516" type="line"/>
      <point x="212" y="520" type="line"/>
      <point x="208" y="530" type="line"/>
      <point x="199" y="533" type="line"/>
      <point x="189" y="514" type="line"/>
      <point x="187" y="487" type="line"/>
      <point x="183" y="486" type="line"/>
      <point x="179" y="500" type="line"/>
      <point x="172" y="508" type="line"/>
      <point x="162" y="501" type="line"/>
      <point x="164" y="493" type="line"/>
      <point x="146" y="478" type="line"/>
      <point x="138" y="466" type="line"/>
      <point x="141" y="454" type="line"/>
      <point x="138" y="442" type="line"/>
      <point x="152" y="438" type="line"/>
      <point x="150" y="423" type="line"/>
      <point x="160" y="415" type="line"/>
      <point x="172" y="414" type="line"/>
      <point x="178" y="425" type="line"/>
      <point x="180" y="448" type="line"/>
      <point x="183" y="453" type="line"/>
      <point x="184" y="469" type="line"/>
      <point x="188" y="467" type="line"/>
      <point x="194" y="447" type="line"/>
      <point x="190" y="432" type="line"/>
      <point x="197" y="399" type="line"/>
      <point x="203" y="394" type="line"/>
      <point x="208" y="405" type="line"/>
      <point x="217" y="413" type="line"/>
      <point x="222" y="429" type="line"/>
      <point x="220" y="451" type="line"/>
      <point x="222" y="456" type="line"/>
      <point x="217" y="463" type="line"/>
    </contour>
  </outline>
</glyph>
<glyph name="percent" format="1">
  <advance width="633"/>
  <unicode hex="0025"/>
  <outline>
    <contour>
      <point x="235" y="594" type="line"/>
      <point x="226" y="592" type="line"/>
      <point x="216" y="598" type="line"/>
      <point x="209" y="597" type="line"/>
      <point x="208" y="605" type="line"/>
      <point x="214" y="614" type="line"/>
      <point x="216" y="611" type="line"/>
      <point x="225" y="611" type="line"/>
      <point x="235" y="602" type="line"/>
    </contour>
    <contour>
      <point x="154" y="627" type="line"/>
      <point x="152" y="624" type="line"/>
      <point x="142" y="624" type="line"/>
      <point x="131" y="633" type="line"/>
      <point x="122" y="633" type="line"/>
      <point x="112" y="615" type="line"/>
      <point x="123" y="602" type="line"/>
      <point x="104" y="589" type="line"/>
      <point x="92" y="594" type="line"/>
      <point x="88" y="598" type="line"/>
      <point x="87" y="619" type="line"/>
      <point x="76" y="630" type="line"/>
      <point x="82" y="638" type="line"/>
      <point x="92" y="641" type="line"/>
      <point x="94" y="633" type="line"/>
      <point x="112" y="651" type="line"/>
      <point x="123" y="648" type="line"/>
      <point x="136" y="657" type="line"/>
      <point x="137" y="651" type="line"/>
      <point x="144" y="647" type="line"/>
      <point x="146" y="637" type="line"/>
    </contour>
    <contour>
      <point x="512" y="196" type="line"/>
      <point x="504" y="187" type="line"/>
      <point x="495" y="191" type="line"/>
      <point x="493" y="193" type="line"/>
      <point x="495" y="203" type="line"/>
      <point x="501" y="207" type="line"/>
    </contour>
    <contour>
      <point x="131" y="570" type="line"/>
      <point x="128" y="550" type="line"/>
      <point x="118" y="558" type="line"/>
      <point x="114" y="568" type="line"/>
      <point x="121" y="577" type="line"/>
    </contour>
    <contour>
      <point x="602" y="108" type="line"/>
      <point x="596" y="90" type="line"/>
      <point x="589" y="86" type="line"/>
      <point x="584" y="104" type="line"/>
      <point x="573" y="110" type="line"/>
      <point x="565" y="104" type="line"/>
      <point x="560" y="70" type="line"/>
      <point x="557" y="64" type="line"/>
      <point x="550" y="70" type="line"/>
      <point x="548" y="90" type="line"/>
      <point x="555" y="94" type="line"/>
      <point x="548" y="109" type="line"/>
      <point x="554" y="143" type="line"/>
      <point x="548" y="149" type="line"/>
      <point x="553" y="158" type="line"/>
      <point x="547" y="192" type="line"/>
      <point x="549" y="214" type="line"/>
      <point x="546" y="221" type="line"/>
      <point x="536" y="224" type="line"/>
      <point x="529" y="212" type="line"/>
      <point x="520" y="210" type="line"/>
      <point x="506" y="219" type="line"/>
      <point x="510" y="226" type="line"/>
      <point x="522" y="229" type="line"/>
      <point x="511" y="242" type="line"/>
      <point x="501" y="247" type="line"/>
      <point x="488" y="241" type="line"/>
      <point x="478" y="251" type="line"/>
      <point x="471" y="251" type="line"/>
      <point x="463" y="273" type="line"/>
      <point x="448" y="261" type="line"/>
      <point x="441" y="248" type="line"/>
      <point x="433" y="245" type="line"/>
      <point x="424" y="232" type="line"/>
      <point x="423" y="215" type="line"/>
      <point x="407" y="210" type="line"/>
      <point x="390" y="193" type="line"/>
      <point x="383" y="184" type="line"/>
      <point x="383" y="168" type="line"/>
      <point x="378" y="161" type="line"/>
      <point x="364" y="137" type="line"/>
      <point x="375" y="113" type="line"/>
      <point x="372" y="87" type="line"/>
      <point x="377" y="54" type="line"/>
      <point x="388" y="50" type="line"/>
      <point x="396" y="54" type="line"/>
      <point x="401" y="52" type="line"/>
      <point x="400" y="46" type="line"/>
      <point x="398" y="38" type="line"/>
      <point x="390" y="30" type="line"/>
      <point x="376" y="28" type="line"/>
      <point x="373" y="46" type="line"/>
      <point x="360" y="50" type="line"/>
      <point x="357" y="63" type="line"/>
      <point x="345" y="80" type="line"/>
      <point x="341" y="83" type="line"/>
      <point x="346" y="93" type="line"/>
      <point x="357" y="100" type="line"/>
      <point x="356" y="114" type="line"/>
      <point x="348" y="119" type="line"/>
      <point x="345" y="112" type="line"/>
      <point x="337" y="106" type="line"/>
      <point x="334" y="90" type="line"/>
      <point x="324" y="99" type="line"/>
      <point x="315" y="103" type="line"/>
      <point x="309" y="99" type="line"/>
      <point x="304" y="108" type="line"/>
      <point x="300" y="119" type="line"/>
      <point x="289" y="111" type="line"/>
      <point x="289" y="102" type="line"/>
      <point x="283" y="103" type="line"/>
      <point x="281" y="132" type="line"/>
      <point x="274" y="137" type="line"/>
      <point x="273" y="148" type="line"/>
      <point x="258" y="157" type="line"/>
      <point x="243" y="131" type="line"/>
      <point x="237" y="123" type="line"/>
      <point x="235" y="112" type="line"/>
      <point x="225" y="110" type="line"/>
      <point x="219" y="116" type="line"/>
      <point x="219" y="133" type="line"/>
      <point x="209" y="148" type="line"/>
      <point x="213" y="154" type="line"/>
      <point x="212" y="172" type="line"/>
      <point x="219" y="164" type="line"/>
      <point x="222" y="193" type="line"/>
      <point x="216" y="213" type="line"/>
      <point x="222" y="252" type="line"/>
      <point x="215" y="259" type="line"/>
      <point x="219" y="286" type="line"/>
      <point x="211" y="298" type="line"/>
      <point x="200" y="300" type="line"/>
      <point x="196" y="311" type="line"/>
      <point x="180" y="314" type="line"/>
      <point x="179" y="340" type="line"/>
      <point x="183" y="347" type="line"/>
      <point x="190" y="347" type="line"/>
      <point x="186" y="360" type="line"/>
      <point x="160" y="362" type="line"/>
      <point x="142" y="377" type="line"/>
      <point x="129" y="362" type="line"/>
      <point x="125" y="364" type="line"/>
      <point x="118" y="382" type="line"/>
      <point x="103" y="388" type="line"/>
      <point x="82" y="408" type="line"/>
      <point x="82" y="413" type="line"/>
      <point x="73" y="413" type="line"/>
      <point x="70" y="437" type="line"/>
      <point x="49" y="455" type="line"/>
      <point x="36" y="462" type="line"/>
      <point x="32" y="494" type="line"/>
      <point x="37" y="503" type="line"/>
      <point x="32" y="520" type="line"/>
      <point x="34" y="541" type="line"/>
      <point x="44" y="548" type="line"/>
      <point x="47" y="563" type="line"/>
      <point x="57" y="570" type="line"/>
      <point x="57" y="589" type="line"/>
      <point x="70" y="600" type="line"/>
      <point x="70" y="611" type="line"/>
      <point x="73" y="614" type="line"/>
      <point x="78" y="594" type="line"/>
      <point x="86" y="587" type="line"/>
      <point x="79" y="576" type="line"/>
      <point x="85" y="562" type="line"/>
      <point x="86" y="531" type="line"/>
      <point x="78" y="515" type="line"/>
      <point x="83" y="486" type="line"/>
      <point x="79" y="464" type="line"/>
      <point x="75" y="455" type="line"/>
      <point x="79" y="441" type="line"/>
      <point x="79" y="427" type="line"/>
      <point x="84" y="422" type="line"/>
      <point x="88" y="427" type="line"/>
      <point x="100" y="429" type="line"/>
      <point x="110" y="419" type="line"/>
      <point x="100" y="410" type="line"/>
      <point x="106" y="400" type="line"/>
      <point x="143" y="400" type="line"/>
      <point x="164" y="384" type="line"/>
      <point x="168" y="377" type="line"/>
      <point x="180" y="368" type="line"/>
      <point x="186" y="390" type="line"/>
      <point x="196" y="400" type="line"/>
      <point x="209" y="402" type="line"/>
      <point x="216" y="412" type="line"/>
      <point x="213" y="422" type="line"/>
      <point x="233" y="440" type="line"/>
      <point x="242" y="458" type="line"/>
      <point x="246" y="459" type="line"/>
      <point x="250" y="483" type="line"/>
      <point x="246" y="499" type="line"/>
      <point x="255" y="508" type="line"/>
      <point x="255" y="520" type="line"/>
      <point x="259" y="531" type="line"/>
      <point x="250" y="542" type="line"/>
      <point x="246" y="555" type="line"/>
      <point x="255" y="570" type="line"/>
      <point x="255" y="589" type="line"/>
      <point x="246" y="609" type="line"/>
      <point x="243" y="614" type="line"/>
      <point x="231" y="614" type="line"/>
      <point x="229" y="618" type="line"/>
      <point x="229" y="624" type="line"/>
      <point x="207" y="630" type="line"/>
      <point x="204" y="633" type="line"/>
      <point x="190" y="624" type="line"/>
      <point x="183" y="624" type="line"/>
      <point x="177" y="643" type="line"/>
      <point x="166" y="651" type="line"/>
      <point x="149" y="651" type="line"/>
      <point x="149" y="657" type="line"/>
      <point x="152" y="662" type="line"/>
      <point x="172" y="662" type="line"/>
      <point x="181" y="651" type="line"/>
      <point x="192" y="656" type="line"/>
      <point x="205" y="657" type="line"/>
      <point x="215" y="644" type="line"/>
      <point x="235" y="640" type="line"/>
      <point x="255" y="619" type="line"/>
      <point x="255" y="609" type="line"/>
      <point x="272" y="593" type="line"/>
      <point x="272" y="589" type="line"/>
      <point x="279" y="569" type="line"/>
      <point x="282" y="550" type="line"/>
      <point x="291" y="558" type="line"/>
      <point x="305" y="550" type="line"/>
      <point x="316" y="550" type="line"/>
      <point x="323" y="539" type="line"/>
      <point x="334" y="532" type="line"/>
      <point x="341" y="537" type="line"/>
      <point x="339" y="543" type="line"/>
      <point x="342" y="550" type="line"/>
      <point x="347" y="548" type="line"/>
      <point x="347" y="527" type="line"/>
      <point x="357" y="518" type="line"/>
      <point x="353" y="505" type="line"/>
      <point x="357" y="494" type="line"/>
      <point x="372" y="489" type="line"/>
      <point x="378" y="500" type="line"/>
      <point x="386" y="521" type="line"/>
      <point x="391" y="523" type="line"/>
      <point x="398" y="541" type="line"/>
      <point x="410" y="536" type="line"/>
      <point x="408" y="512" type="line"/>
      <point x="418" y="503" type="line"/>
      <point x="421" y="488" type="line"/>
      <point x="418" y="468" type="line"/>
      <point x="410" y="455" type="line"/>
      <point x="417" y="438" type="line"/>
      <point x="418" y="418" type="line"/>
      <point x="413" y="404" type="line"/>
      <point x="410" y="388" type="line"/>
      <point x="402" y="377" type="line"/>
      <point x="403" y="356" type="line"/>
      <point x="416" y="347" type="line"/>
      <point x="425" y="340" type="line"/>
      <point x="432" y="340" type="line"/>
      <point x="441" y="330" type="line"/>
      <point x="445" y="330" type="line"/>
      <point x="448" y="316" type="line"/>
      <point x="436" y="302" type="line"/>
      <point x="441" y="290" type="line"/>
      <point x="453" y="283" type="line"/>
      <point x="469" y="284" type="line"/>
      <point x="484" y="273" type="line"/>
      <point x="491" y="276" type="line"/>
      <point x="495" y="283" type="line"/>
      <point x="506" y="279" type="line"/>
      <point x="535" y="248" type="line"/>
      <point x="546" y="246" type="line"/>
      <point x="556" y="236" type="line"/>
      <point x="558" y="215" type="line"/>
      <point x="570" y="207" type="line"/>
      <point x="576" y="191" type="line"/>
      <point x="588" y="201" type="line"/>
      <point x="595" y="195" type="line"/>
      <point x="599" y="179" type="line"/>
      <point x="593" y="153" type="line"/>
      <point x="600" y="131" type="line"/>
    </contour>
    <contour>
      <point x="550" y="37" type="line"/>
      <point x="546" y="28" type="line"/>
      <point x="537" y="27" type="line"/>
      <point x="533" y="20" type="line"/>
      <point x="532" y="11" type="line"/>
      <point x="520" y="2" type="line"/>
      <point x="509" y="2" type="line"/>
      <point x="506" y="-4" type="line"/>
      <point x="494" y="-9" type="line"/>
      <point x="488" y="-2" type="line"/>
      <point x="471" y="-18" type="line"/>
      <point x="460" y="-18" type="line"/>
      <point x="453" y="-12" type="line"/>
      <point x="421" y="-9" type="line"/>
      <point x="421" y="-2" type="line"/>
      <point x="417" y="-2" type="line"/>
      <point x="407" y="9" type="line"/>
      <point x="400" y="9" type="line"/>
      <point x="391" y="16" type="line"/>
      <point x="397" y="20" type="line"/>
      <point x="403" y="20" type="line"/>
      <point x="421" y="5" type="line"/>
      <point x="427" y="9" type="line"/>
      <point x="442" y="6" type="line"/>
      <point x="442" y="-3" type="line"/>
      <point x="456" y="-1" type="line"/>
      <point x="469" y="4" type="line"/>
      <point x="467" y="12" type="line"/>
      <point x="471" y="23" type="line"/>
      <point x="481" y="23" type="line"/>
      <point x="492" y="16" type="line"/>
      <point x="507" y="22" type="line"/>
      <point x="520" y="24" type="line"/>
      <point x="525" y="38" type="line"/>
      <point x="522" y="46" type="line"/>
      <point x="512" y="50" type="line"/>
      <point x="515" y="57" type="line"/>
      <point x="536" y="53" type="line"/>
      <point x="540" y="43" type="line"/>
    </contour>
    <contour>
      <point x="427" y="46" type="line"/>
      <point x="424" y="38" type="line"/>
      <point x="414" y="40" type="line"/>
      <point x="410" y="50" type="line"/>
      <point x="419" y="52" type="line"/>
      <point x="421" y="46" type="line"/>
    </contour>
  </outline>
</glyph>
<glyph name="ampersand" format="1">
  <advance width="560"/>
  <unicode hex="0026"/>
  <outline>
    <contour>
      <point x="538" y="84" type="line"/>
      <point x="529" y="66" type="line"/>
      <point x="509" y="65" type="line"/>
      <point x="499" y="51" type="line"/>
      <point x="507" y="34" type="line"/>
      <point x="520" y="27" type="line"/>
      <point x="508" y="12" type="line"/>
      <point x="487" y="3" type="line"/>
      <point x="472" y="10" type="line"/>
      <point x="436" y="1" type="line"/>
      <point x="427" y="9" type="line"/>
      <point x="402" y="13" type="line"/>
      <point x="375" y="9" type="line"/>
      <point x="372" y="-2" type="line"/>
      <point x="350" y="-4" type="line"/>
      <point x="328" y="5" type="line"/>
      <point x="308" y="-6" type="line"/>
      <point x="311" y="-11" type="line"/>
      <point x="288" y="-12" type="line"/>
      <point x="272" y="-23" type="line"/>
      <point x="236" y="-21" type="line"/>
      <point x="233" y="-26" type="line"/>
      <point x="190" y="-26" type="line"/>
      <point x="174" y="-17" type="line"/>
      <point x="159" y="2" type="line"/>
      <point x="131" y="12" type="line"/>
      <point x="124" y="26" type="line"/>
      <point x="107" y="33" type="line"/>
      <point x="104" y="29" type="line"/>
      <point x="80" y="51" type="line"/>
      <point x="75" y="67" type="line"/>
      <point x="61" y="90" type="line"/>
      <point x="64" y="97" type="line"/>
      <point x="53" y="115" type="line"/>
      <point x="58" y="121" type="line"/>
      <point x="65" y="146" type="line"/>
      <point x="55" y="164" type="line"/>
      <point x="67" y="176" type="line"/>
      <point x="69" y="198" type="line"/>
      <point x="79" y="213" type="line"/>
      <point x="78" y="245" type="line"/>
      <point x="73" y="257" type="line"/>
      <point x="83" y="262" type="line"/>
      <point x="91" y="276" type="line"/>
      <point x="103" y="275" type="line"/>
      <point x="116" y="295" type="line"/>
      <point x="116" y="321" type="line"/>
      <point x="110" y="330" type="line"/>
      <point x="117" y="355" type="line"/>
      <point x="110" y="369" type="line"/>
      <point x="120" y="377" type="line"/>
      <point x="126" y="398" type="line"/>
      <point x="123" y="424" type="line"/>
      <point x="115" y="436" type="line"/>
      <point x="122" y="457" type="line"/>
      <point x="112" y="465" type="line"/>
      <point x="105" y="482" type="line"/>
      <point x="100" y="479" type="line"/>
      <point x="100" y="497" type="line"/>
      <point x="113" y="504" type="line"/>
      <point x="114" y="531" type="line"/>
      <point x="109" y="541" type="line"/>
      <point x="122" y="564" type="line"/>
      <point x="127" y="588" type="line"/>
      <point x="120" y="595" type="line"/>
      <point x="130" y="613" type="line"/>
      <point x="152" y="630" type="line"/>
      <point x="160" y="649" type="line"/>
      <point x="169" y="634" type="line"/>
      <point x="182" y="633" type="line"/>
      <point x="191" y="645" type="line"/>
      <point x="214" y="659" type="line"/>
      <point x="228" y="651" type="line"/>
      <point x="252" y="652" type="line"/>
      <point x="256" y="647" type="line"/>
      <point x="275" y="654" type="line"/>
      <point x="275" y="669" type="line"/>
      <point x="288" y="667" type="line"/>
      <point x="298" y="671" type="line"/>
      <point x="304" y="660" type="line"/>
      <point x="321" y="649" type="line"/>
      <point x="334" y="654" type="line"/>
      <point x="338" y="636" type="line"/>
      <point x="353" y="633" type="line"/>
      <point x="358" y="609" type="line"/>
      <point x="368" y="600" type="line"/>
      <point x="365" y="572" type="line"/>
      <point x="371" y="561" type="line"/>
      <point x="366" y="533" type="line"/>
      <point x="364" y="516" type="line"/>
      <point x="370" y="504" type="line"/>
      <point x="365" y="483" type="line"/>
      <point x="358" y="485" type="line"/>
      <point x="342" y="459" type="line"/>
      <point x="328" y="452" type="line"/>
      <point x="325" y="436" type="line"/>
      <point x="311" y="431" type="line"/>
      <point x="296" y="413" type="line"/>
      <point x="302" y="391" type="line"/>
      <point x="298" y="373" type="line"/>
      <point x="306" y="355" type="line"/>
      <point x="320" y="341" type="line"/>
      <point x="316" y="328" type="line"/>
      <point x="319" y="316" type="line"/>
      <point x="310" y="293" type="line"/>
      <point x="317" y="276" type="line"/>
      <point x="322" y="278" type="line"/>
      <point x="325" y="263" type="line"/>
      <point x="338" y="257" type="line"/>
      <point x="352" y="266" type="line"/>
      <point x="346" y="278" type="line"/>
      <point x="347" y="294" type="line"/>
      <point x="365" y="298" type="line"/>
      <point x="372" y="290" type="line"/>
      <point x="371" y="278" type="line"/>
      <point x="386" y="267" type="line"/>
      <point x="407" y="265" type="line"/>
      <point x="415" y="275" type="line"/>
      <point x="411" y="284" type="line"/>
      <point x="422" y="287" type="line"/>
      <point x="434" y="281" type="line"/>
      <point x="431" y="273" type="line"/>
      <point x="433" y="257" type="line"/>
      <point x="448" y="248" type="line"/>
      <point x="452" y="273" type="line"/>
      <point x="466" y="280" type="line"/>
      <point x="476" y="299" type="line"/>
      <point x="486" y="300" type="line"/>
      <point x="494" y="291" type="line"/>
      <point x="486" y="267" type="line"/>
      <point x="493" y="257" type="line"/>
      <point x="486" y="252" type="line"/>
      <point x="494" y="228" type="line"/>
      <point x="483" y="214" type="line"/>
      <point x="479" y="196" type="line"/>
      <point x="465" y="192" type="line"/>
      <point x="454" y="174" type="line"/>
      <point x="460" y="162" type="line"/>
      <point x="455" y="159" type="line"/>
      <point x="460" y="137" type="line"/>
      <point x="472" y="129" type="line"/>
      <point x="477" y="114" type="line"/>
      <point x="502" y="109" type="line"/>
      <point x="512" y="93" type="line"/>
      <point x="531" y="84" type="line"/>
    </contour>
    <contour>
      <point x="328" y="515" type="line"/>
      <point x="325" y="530" type="line"/>
      <point x="306" y="532" type="line"/>
      <point x="290" y="523" type="line"/>
      <point x="282" y="509" type="line"/>
      <point x="277" y="519" type="line"/>
      <point x="286" y="538" type="line"/>
      <point x="281" y="554" type="line"/>
      <point x="283" y="575" type="line"/>
      <point x="272" y="584" type="line"/>
      <point x="275" y="602" type="line"/>
      <point x="264" y="613" type="line"/>
      <point x="254" y="610" type="line"/>
      <point x="257" y="601" type="line"/>
      <point x="243" y="594" type="line"/>
      <point x="237" y="609" type="line"/>
      <point x="226" y="615" type="line"/>
      <point x="211" y="608" type="line"/>
      <point x="208" y="594" type="line"/>
      <point x="216" y="580" type="line"/>
      <point x="207" y="564" type="line"/>
      <point x="210" y="558" type="line"/>
      <point x="202" y="542" type="line"/>
      <point x="189" y="535" type="line"/>
      <point x="198" y="516" type="line"/>
      <point x="212" y="510" type="line"/>
      <point x="223" y="492" type="line"/>
      <point x="216" y="486" type="line"/>
      <point x="229" y="475" type="line"/>
      <point x="243" y="482" type="line"/>
      <point x="252" y="494" type="line"/>
      <point x="262" y="490" type="line"/>
      <point x="260" y="476" type="line"/>
      <point x="267" y="467" type="line"/>
      <point x="281" y="471" type="line"/>
      <point x="285" y="483" type="line"/>
      <point x="279" y="488" type="line"/>
      <point x="287" y="498" type="line"/>
      <point x="303" y="504" type="line"/>
      <point x="308" y="494" type="line"/>
      <point x="322" y="493" type="line"/>
      <point x="320" y="511" type="line"/>
    </contour>
    <contour>
      <point x="194" y="568" type="line"/>
      <point x="194" y="579" type="line"/>
      <point x="170" y="581" type="line"/>
      <point x="158" y="588" type="line"/>
      <point x="156" y="568" type="line"/>
      <point x="165" y="558" type="line"/>
      <point x="167" y="546" type="line"/>
      <point x="173" y="542" type="line"/>
      <point x="184" y="556" type="line"/>
      <point x="183" y="566" type="line"/>
    </contour>
    <contour>
      <point x="187" y="267" type="line"/>
      <point x="176" y="269" type="line"/>
      <point x="167" y="278" type="line"/>
      <point x="162" y="261" type="line"/>
      <point x="153" y="253" type="line"/>
      <point x="158" y="240" type="line"/>
      <point x="166" y="250" type="line"/>
      <point x="177" y="254" type="line"/>
    </contour>
    <contour>
      <point x="346" y="70" type="line"/>
      <point x="343" y="82" type="line"/>
      <point x="334" y="90" type="line"/>
      <point x="338" y="109" type="line"/>
      <point x="330" y="132" type="line"/>
      <point x="312" y="144" type="line"/>
      <point x="317" y="148" type="line"/>
      <point x="303" y="160" type="line"/>
      <point x="312" y="164" type="line"/>
      <point x="327" y="154" type="line"/>
      <point x="338" y="160" type="line"/>
      <point x="341" y="170" type="line"/>
      <point x="332" y="172" type="line"/>
      <point x="338" y="185" type="line"/>
      <point x="325" y="202" type="line"/>
      <point x="312" y="200" type="line"/>
      <point x="312" y="210" type="line"/>
      <point x="297" y="234" type="line"/>
      <point x="279" y="240" type="line"/>
      <point x="265" y="260" type="line"/>
      <point x="255" y="250" type="line"/>
      <point x="252" y="237" type="line"/>
      <point x="232" y="233" type="line"/>
      <point x="215" y="245" type="line"/>
      <point x="208" y="257" type="line"/>
      <point x="189" y="254" type="line"/>
      <point x="186" y="245" type="line"/>
      <point x="165" y="231" type="line"/>
      <point x="163" y="221" type="line"/>
      <point x="146" y="207" type="line"/>
      <point x="137" y="192" type="line"/>
      <point x="122" y="188" type="line"/>
      <point x="115" y="176" type="line"/>
      <point x="122" y="148" type="line"/>
      <point x="136" y="146" type="line"/>
      <point x="145" y="129" type="line"/>
      <point x="161" y="117" type="line"/>
      <point x="158" y="102" type="line"/>
      <point x="165" y="84" type="line"/>
      <point x="156" y="79" type="line"/>
      <point x="152" y="66" type="line"/>
      <point x="160" y="45" type="line"/>
      <point x="178" y="31" type="line"/>
      <point x="182" y="36" type="line"/>
      <point x="198" y="17" type="line"/>
      <point x="210" y="17" type="line"/>
      <point x="214" y="29" type="line"/>
      <point x="209" y="42" type="line"/>
      <point x="231" y="32" type="line"/>
      <point x="236" y="24" type="line"/>
      <point x="258" y="18" type="line"/>
      <point x="272" y="25" type="line"/>
      <point x="274" y="33" type="line"/>
      <point x="286" y="23" type="line"/>
      <point x="304" y="19" type="line"/>
      <point x="319" y="29" type="line"/>
      <point x="317" y="45" type="line"/>
      <point x="308" y="54" type="line"/>
      <point x="294" y="56" type="line"/>
      <point x="304" y="64" type="line"/>
      <point x="306" y="74" type="line"/>
      <point x="322" y="79" type="line"/>
      <point x="332" y="70" type="line"/>
    </contour>
    <contour>
      <point x="223" y="57" type="line"/>
      <point x="198" y="57" type="line"/>
      <point x="180" y="51" type="line"/>
      <point x="169" y="59" type="line"/>
      <point x="176" y="73" type="line"/>
      <point x="191" y="70" type="line"/>
      <point x="201" y="62" type="line"/>
      <point x="208" y="66" type="line"/>
      <point x="221" y="67" type="line"/>
    </contour>
  </outline>
</glyph>
<glyph name="quotesingle" format="1">
  <advance width="233"/>
  <unicode hex="0027"/>
  <outline>
    <contour>
      <point x="184" y="565" type="line"/>
      <point x="171" y="539" type="line"/>
      <point x="173" y="532" type="line"/>
      <point x="165" y="528" type="line"/>
      <point x="162" y="509" type="line"/>
      <point x="153" y="505" type="line"/>
      <point x="142" y="487" type="line"/>
      <point x="146" y="475" type="line"/>
      <point x="143" y="453" type="line"/>
      <point x="134" y="442" type="line"/>
      <point x="135" y="425" type="line"/>
      <point x="124" y="408" type="line"/>
      <point x="111" y="400" type="line"/>
      <point x="113" y="391" type="line"/>
      <point x="104" y="375" type="line"/>
      <point x="95" y="383" type="line"/>
      <point x="93" y="395" type="line"/>
      <point x="80" y="412" type="line"/>
      <point x="85" y="420" type="line"/>
      <point x="79" y="438" type="line"/>
      <point x="78" y="456" type="line"/>
      <point x="66" y="466" type="line"/>
      <point x="64" y="490" type="line"/>
      <point x="56" y="492" type="line"/>
      <point x="61" y="518" type="line"/>
      <point x="54" y="528" type="line"/>
      <point x="53" y="549" type="line"/>
      <point x="61" y="571" type="line"/>
      <point x="55" y="580" type="line"/>
      <point x="64" y="593" type="line"/>
      <point x="67" y="619" type="line"/>
      <point x="74" y="618" type="line"/>
      <point x="85" y="629" type="line"/>
      <point x="85" y="642" type="line"/>
      <point x="103" y="649" type="line"/>
      <point x="111" y="658" type="line"/>
      <point x="126" y="648" type="line"/>
      <point x="140" y="648" type="line"/>
      <point x="139" y="635" type="line"/>
      <point x="152" y="625" type="line"/>
      <point x="167" y="627" type="line"/>
      <point x="171" y="609" type="line"/>
      <point x="183" y="594" type="line"/>
      <point x="179" y="575" type="line"/>
    </contour>
  </outline>
</glyph>
<glyph name="parenleft" format="1">
  <advance width="400"/>
  <unicode hex="0028"/>
  <outline>
    <contour>
      <point x="351" y="-24" type="line"/>
      <point x="349" y="-32" type="line"/>
      <point x="329" y="-30" type="line"/>
      <point x="310" y="-33" type="line"/>
      <point x="299" y="-21" type="line"/>
      <point x="279" y="-20" type="line"/>
      <point x="268" y="-13" type="line"/>
      <point x="269" y="-6" type="line"/>
      <point x="239" y="4" type="line"/>
      <point x="239" y="11" type="line"/>
      <point x="231" y="22" type="line"/>
      <point x="209" y="30" type="line"/>
      <point x="207" y="37" type="line"/>
      <point x="192" y="49" type="line"/>
      <point x="185" y="65" type="line"/>
      <point x="178" y="65" type="line"/>
      <point x="167" y="74" type="line"/>
      <point x="172" y="79" type="line"/>
      <point x="159" y="85" type="line"/>
      <point x="152" y="103" type="line"/>
      <point x="143" y="103" type="line"/>
      <point x="129" y="117" type="line"/>
      <point x="124" y="134" type="line"/>
      <point x="117" y="134" type="line"/>
      <point x="119" y="150" type="line"/>
      <point x="106" y="176" type="line"/>
      <point x="94" y="186" type="line"/>
      <point x="98" y="198" type="line"/>
      <point x="89" y="214" type="line"/>
      <point x="96" y="212" type="line"/>
      <point x="101" y="231" type="line"/>
      <point x="94" y="238" type="line"/>
      <point x="91" y="258" type="line"/>
      <point x="96" y="266" type="line"/>
      <point x="89" y="282" type="line"/>
      <point x="83" y="282" type="line"/>
      <point x="90" y="302" type="line"/>
      <point x="86" y="335" type="line"/>
      <point x="93" y="340" type="line"/>
      <point x="88" y="356" type="line"/>
      <point x="96" y="373" type="line"/>
      <point x="96" y="386" type="line"/>
      <point x="91" y="390" type="line"/>
      <point x="96" y="423" type="line"/>
      <point x="91" y="432" type="line"/>
      <point x="102" y="439" type="line"/>
      <point x="104" y="453" type="line"/>
      <point x="113" y="467" type="line"/>
      <point x="110" y="474" type="line"/>
      <point x="123" y="495" type="line"/>
      <point x="123" y="504" type="line"/>
      <point x="131" y="519" type="line"/>
      <point x="145" y="523" type="line"/>
      <point x="153" y="534" type="line"/>
      <point x="168" y="541" type="line"/>
      <point x="163" y="544" type="line"/>
      <point x="183" y="559" type="line"/>
      <point x="186" y="571" type="line"/>
      <point x="201" y="578" type="line"/>
      <point x="204" y="589" type="line"/>
      <point x="227" y="606" type="line"/>
      <point x="229" y="615" type="line"/>
      <point x="250" y="619" type="line"/>
      <point x="265" y="631" type="line"/>
      <point x="278" y="633" type="line"/>
      <point x="289" y="648" type="line"/>
      <point x="285" y="650" type="line"/>
      <point x="297" y="656" type="line"/>
      <point x="303" y="648" type="line"/>
      <point x="322" y="648" type="line"/>
      <point x="341" y="654" type="line"/>
      <point x="347" y="650" type="line"/>
      <point x="326" y="634" type="line"/>
      <point x="302" y="628" type="line"/>
      <point x="294" y="616" type="line"/>
      <point x="297" y="608" type="line"/>
      <point x="310" y="605" type="line"/>
      <point x="326" y="615" type="line"/>
      <point x="334" y="608" type="line"/>
      <point x="306" y="599" type="line"/>
      <point x="291" y="603" type="line"/>
      <point x="278" y="591" type="line"/>
      <point x="269" y="595" type="line"/>
      <point x="253" y="577" type="line"/>
      <point x="236" y="570" type="line"/>
      <point x="221" y="552" type="line"/>
      <point x="218" y="538" type="line"/>
      <point x="208" y="534" type="line"/>
      <point x="202" y="513" type="line"/>
      <point x="204" y="510" type="line"/>
      <point x="197" y="507" type="line"/>
      <point x="197" y="489" type="line"/>
      <point x="187" y="490" type="line"/>
      <point x="181" y="477" type="line"/>
      <point x="184" y="470" type="line"/>
      <point x="175" y="454" type="line"/>
      <point x="172" y="428" type="line"/>
      <point x="163" y="425" type="line"/>
      <point x="156" y="404" type="line"/>
      <point x="160" y="396" type="line"/>
      <point x="151" y="390" type="line"/>
      <point x="146" y="375" type="line"/>
      <point x="136" y="367" type="line"/>
      <point x="131" y="343" type="line"/>
      <point x="134" y="336" type="line"/>
      <point x="130" y="317" type="line"/>
      <point x="135" y="280" type="line"/>
      <point x="131" y="277" type="line"/>
      <point x="137" y="256" type="line"/>
      <point x="148" y="243" type="line"/>
      <point x="145" y="240" type="line"/>
      <point x="155" y="233" type="line"/>
      <point x="164" y="241" type="line"/>
      <point x="158" y="249" type="line"/>
      <point x="157" y="263" type="line"/>
      <point x="152" y="266" type="line"/>
      <point x="154" y="284" type="line"/>
      <point x="148" y="288" type="line"/>
      <point x="149" y="313" type="line"/>
      <point x="154" y="329" type="line"/>
      <point x="148" y="341" type="line"/>
      <point x="151" y="358" type="line"/>
      <point x="157" y="359" type="line"/>
      <point x="160" y="370" type="line"/>
      <point x="168" y="364" type="line"/>
      <point x="163" y="349" type="line"/>
      <point x="160" y="334" type="line"/>
      <point x="167" y="314" type="line"/>
      <point x="161" y="307" type="line"/>
      <point x="159" y="292" type="line"/>
      <point x="164" y="278" type="line"/>
      <point x="165" y="256" type="line"/>
      <point x="172" y="252" type="line"/>
      <point x="175" y="232" type="line"/>
      <point x="167" y="231" type="line"/>
      <point x="161" y="223" type="line"/>
      <point x="163" y="207" type="line"/>
      <point x="170" y="207" type="line"/>
      <point x="174" y="186" type="line"/>
      <point x="179" y="182" type="line"/>
      <point x="181" y="163" type="line"/>
      <point x="190" y="157" type="line"/>
      <point x="187" y="150" type="line"/>
      <point x="199" y="124" type="line"/>
      <point x="197" y="111" type="line"/>
      <point x="204" y="107" type="line"/>
      <point x="202" y="95" type="line"/>
      <point x="212" y="79" type="line"/>
      <point x="229" y="67" type="line"/>
      <point x="235" y="56" type="line"/>
      <point x="250" y="53" type="line"/>
      <point x="250" y="45" type="line"/>
      <point x="263" y="34" type="line"/>
      <point x="276" y="33" type="line"/>
      <point x="275" y="23" type="line"/>
      <point x="284" y="10" type="line"/>
      <point x="306" y="1" type="line"/>
      <point x="309" y="-7" type="line"/>
      <point x="341" y="-14" type="line"/>
    </contour>
    <contour>
      <point x="77" y="384" type="line"/>
      <point x="73" y="377" type="line"/>
      <point x="75" y="368" type="line"/>
      <point x="70" y="363" type="line"/>
      <point x="68" y="345" type="line"/>
      <point x="72" y="342" type="line"/>
      <point x="69" y="327" type="line"/>
      <point x="64" y="321" type="line"/>
      <point x="69" y="309" type="line"/>
      <point x="65" y="303" type="line"/>
      <point x="70" y="282" type="line"/>
      <point x="71" y="255" type="line"/>
      <point x="75" y="249" type="line"/>
      <point x="71" y="242" type="line"/>
      <point x="64" y="250" type="line"/>
      <point x="60" y="269" type="line"/>
      <point x="64" y="277" type="line"/>
      <point x="56" y="302" type="line"/>
      <point x="54" y="321" type="line"/>
      <point x="59" y="325" type="line"/>
      <point x="57" y="344" type="line"/>
      <point x="62" y="351" type="line"/>
      <point x="62" y="371" type="line"/>
      <point x="69" y="382" type="line"/>
    </contour>
  </outline>
</glyph>
<glyph name="parenright" format="1">
  <advance width="400"/>
  <unicode hex="0029"/>
  <outline>
    <contour>
      <point x="345" y="318" type="line"/>
      <point x="339" y="315" type="line"/>
      <point x="344" y="289" type="line"/>
      <point x="339" y="278" type="line"/>
      <point x="344" y="271" type="line"/>
      <point x="337" y="257" type="line"/>
      <point x="333" y="253" type="line"/>
      <point x="333" y="269" type="line"/>
      <point x="325" y="283" type="line"/>
      <point x="330" y="289" type="line"/>
      <point x="325" y="300" type="line"/>
      <point x="326" y="317" type="line"/>
      <point x="331" y="324" type="line"/>
      <point x="325" y="347" type="line"/>
      <point x="327" y="373" type="line"/>
      <point x="323" y="379" type="line"/>
      <point x="327" y="385" type="line"/>
      <point x="335" y="376" type="line"/>
      <point x="332" y="362" type="line"/>
      <point x="341" y="346" type="line"/>
      <point x="339" y="332" type="line"/>
    </contour>
    <contour>
      <point x="312" y="263" type="line"/>
      <point x="304" y="254" type="line"/>
      <point x="295" y="226" type="line"/>
      <point x="302" y="219" type="line"/>
      <point x="303" y="202" type="line"/>
      <point x="310" y="196" type="line"/>
      <point x="299" y="189" type="line"/>
      <point x="292" y="171" type="line"/>
      <point x="293" y="154" type="line"/>
      <point x="284" y="139" type="line"/>
      <point x="277" y="141" type="line"/>
      <point x="271" y="121" type="line"/>
      <point x="271" y="109" type="line"/>
      <point x="266" y="112" type="line"/>
      <point x="253" y="106" type="line"/>
      <point x="246" y="91" type="line"/>
      <point x="228" y="79" type="line"/>
      <point x="231" y="74" type="line"/>
      <point x="214" y="59" type="line"/>
      <point x="207" y="59" type="line"/>
      <point x="203" y="40" type="line"/>
      <point x="195" y="38" type="line"/>
      <point x="190" y="25" type="line"/>
      <point x="171" y="22" type="line"/>
      <point x="160" y="13" type="line"/>
      <point x="157" y="3" type="line"/>
      <point x="144" y="5" type="line"/>
      <point x="132" y="-9" type="line"/>
      <point x="110" y="-16" type="line"/>
      <point x="87" y="-31" type="line"/>
      <point x="74" y="-28" type="line"/>
      <point x="54" y="-32" type="line"/>
      <point x="47" y="-25" type="line"/>
      <point x="68" y="-14" type="line"/>
      <point x="68" y="-7" type="line"/>
      <point x="91" y="1" type="line"/>
      <point x="101" y="15" type="line"/>
      <point x="106" y="15" type="line"/>
      <point x="120" y="27" type="line"/>
      <point x="128" y="38" type="line"/>
      <point x="142" y="40" type="line"/>
      <point x="149" y="53" type="line"/>
      <point x="158" y="53" type="line"/>
      <point x="173" y="67" type="line"/>
      <point x="173" y="74" type="line"/>
      <point x="186" y="88" type="line"/>
      <point x="190" y="103" type="line"/>
      <point x="198" y="113" type="line"/>
      <point x="195" y="121" type="line"/>
      <point x="204" y="140" type="line"/>
      <point x="214" y="145" type="line"/>
      <point x="215" y="161" type="line"/>
      <point x="214" y="169" type="line"/>
      <point x="226" y="177" type="line"/>
      <point x="235" y="195" type="line"/>
      <point x="233" y="212" type="line"/>
      <point x="239" y="211" type="line"/>
      <point x="241" y="221" type="line"/>
      <point x="228" y="237" type="line"/>
      <point x="233" y="241" type="line"/>
      <point x="228" y="257" type="line"/>
      <point x="236" y="266" type="line"/>
      <point x="232" y="287" type="line"/>
      <point x="241" y="298" type="line"/>
      <point x="239" y="327" type="line"/>
      <point x="234" y="336" type="line"/>
      <point x="234" y="355" type="line"/>
      <point x="229" y="374" type="line"/>
      <point x="236" y="405" type="line"/>
      <point x="226" y="422" type="line"/>
      <point x="229" y="440" type="line"/>
      <point x="224" y="439" type="line"/>
      <point x="213" y="468" type="line"/>
      <point x="206" y="469" type="line"/>
      <point x="210" y="483" type="line"/>
      <point x="201" y="500" type="line"/>
      <point x="201" y="521" type="line"/>
      <point x="190" y="526" type="line"/>
      <point x="182" y="545" type="line"/>
      <point x="170" y="553" type="line"/>
      <point x="176" y="559" type="line"/>
      <point x="156" y="572" type="line"/>
      <point x="149" y="572" type="line"/>
      <point x="135" y="590" type="line"/>
      <point x="125" y="595" type="line"/>
      <point x="116" y="592" type="line"/>
      <point x="114" y="603" type="line"/>
      <point x="104" y="606" type="line"/>
      <point x="89" y="602" type="line"/>
      <point x="69" y="607" type="line"/>
      <point x="62" y="614" type="line"/>
      <point x="64" y="621" type="line"/>
      <point x="69" y="614" type="line"/>
      <point x="92" y="613" type="line"/>
      <point x="98" y="620" type="line"/>
      <point x="84" y="626" type="line"/>
      <point x="87" y="629" type="line"/>
      <point x="63" y="638" type="line"/>
      <point x="49" y="651" type="line"/>
      <point x="41" y="651" type="line"/>
      <point x="43" y="655" type="line"/>
      <point x="73" y="657" type="line"/>
      <point x="72" y="652" type="line"/>
      <point x="89" y="644" type="line"/>
      <point x="94" y="652" type="line"/>
      <point x="102" y="656" type="line"/>
      <point x="106" y="649" type="line"/>
      <point x="125" y="644" type="line"/>
      <point x="122" y="638" type="line"/>
      <point x="141" y="621" type="line"/>
      <point x="151" y="621" type="line"/>
      <point x="172" y="604" type="line"/>
      <point x="177" y="593" type="line"/>
      <point x="195" y="590" type="line"/>
      <point x="206" y="577" type="line"/>
      <point x="206" y="570" type="line"/>
      <point x="223" y="551" type="line"/>
      <point x="232" y="549" type="line"/>
      <point x="241" y="528" type="line"/>
      <point x="255" y="524" type="line"/>
      <point x="269" y="510" type="line"/>
      <point x="269" y="503" type="line"/>
      <point x="284" y="492" type="line"/>
      <point x="284" y="474" type="line"/>
      <point x="293" y="462" type="line"/>
      <point x="289" y="459" type="line"/>
      <point x="298" y="444" type="line"/>
      <point x="298" y="418" type="line"/>
      <point x="305" y="410" type="line"/>
      <point x="297" y="407" type="line"/>
      <point x="302" y="386" type="line"/>
      <point x="299" y="368" type="line"/>
      <point x="306" y="357" type="line"/>
      <point x="310" y="361" type="line"/>
      <point x="312" y="341" type="line"/>
      <point x="306" y="333" type="line"/>
      <point x="305" y="318" type="line"/>
      <point x="312" y="310" type="line"/>
      <point x="309" y="298" type="line"/>
      <point x="305" y="295" type="line"/>
    </contour>
    <contour>
      <point x="268" y="300" type="line"/>
      <point x="262" y="308" type="line"/>
      <point x="260" y="326" type="line"/>
      <point x="265" y="326" type="line"/>
      <point x="261" y="336" type="line"/>
      <point x="263" y="354" type="line"/>
      <point x="252" y="369" type="line"/>
      <point x="250" y="391" type="line"/>
      <point x="244" y="380" type="line"/>
      <point x="243" y="361" type="line"/>
      <point x="250" y="352" type="line"/>
      <point x="246" y="349" type="line"/>
      <point x="251" y="337" type="line"/>
      <point x="247" y="332" type="line"/>
      <point x="250" y="311" type="line"/>
      <point x="255" y="305" type="line"/>
      <point x="246" y="286" type="line"/>
      <point x="246" y="265" type="line"/>
      <point x="241" y="251" type="line"/>
      <point x="245" y="234" type="line"/>
      <point x="252" y="242" type="line"/>
      <point x="256" y="256" type="line"/>
      <point x="252" y="260" type="line"/>
      <point x="261" y="268" type="line"/>
      <point x="261" y="283" type="line"/>
    </contour>
  </outline>
</glyph>
<glyph name="asterisk" format="1">
  <advance width="410"/>
  <unicode hex="002A"/>
  <outline>
    <contour>
      <point x="354" y="483" type="line"/>
      <point x="345" y="482" type="line"/>
      <point x="339" y="472" type="line"/>
      <point x="336" y="450" type="line"/>
      <point x="346" y="437" type="line"/>
      <point x="338" y="431" type="line"/>
      <point x="332" y="415" type="line"/>
      <point x="324" y="416" type="line"/>
      <point x="319" y="419" type="line"/>
      <point x="312" y="415" type="line"/>
      <point x="316" y="401" type="line"/>
      <point x="316" y="397" type="line"/>
      <point x="302" y="400" type="line"/>
      <point x="299" y="395" type="line"/>
      <point x="283" y="397" type="line"/>
      <point x="279" y="386" type="line"/>
      <point x="265" y="380" type="line"/>
      <point x="261" y="373" type="line"/>
      <point x="263" y="366" type="line"/>
      <point x="272" y="362" type="line"/>
      <point x="276" y="352" type="line"/>
      <point x="265" y="344" type="line"/>
      <point x="252" y="348" type="line"/>
      <point x="253" y="356" type="line"/>
      <point x="247" y="367" type="line"/>
      <point x="250" y="375" type="line"/>
      <point x="246" y="381" type="line"/>
      <point x="238" y="384" type="line"/>
      <point x="233" y="374" type="line"/>
      <point x="236" y="360" type="line"/>
      <point x="229" y="349" type="line"/>
      <point x="216" y="346" type="line"/>
      <point x="212" y="332" type="line"/>
      <point x="201" y="330" type="line"/>
      <point x="195" y="340" type="line"/>
      <point x="194" y="348" type="line"/>
      <point x="185" y="359" type="line"/>
      <point x="180" y="362" type="line"/>
      <point x="178" y="374" type="line"/>
      <point x="171" y="380" type="line"/>
      <point x="164" y="367" type="line"/>
      <point x="166" y="358" type="line"/>
      <point x="158" y="348" type="line"/>
      <point x="159" y="338" type="line"/>
      <point x="154" y="335" type="line"/>
      <point x="149" y="338" type="line"/>
      <point x="141" y="356" type="line"/>
      <point x="146" y="367" type="line"/>
      <point x="144" y="379" type="line"/>
      <point x="136" y="385" type="line"/>
      <point x="126" y="383" type="line"/>
      <point x="122" y="388" type="line"/>
      <point x="131" y="396" type="line"/>
      <point x="127" y="404" type="line"/>
      <point x="130" y="417" type="line"/>
      <point x="123" y="418" type="line"/>
      <point x="116" y="410" type="line"/>
      <point x="113" y="393" type="line"/>
      <point x="104" y="391" type="line"/>
      <point x="100" y="405" type="line"/>
      <point x="101" y="415" type="line"/>
      <point x="91" y="415" type="line"/>
      <point x="80" y="419" type="line"/>
      <point x="74" y="425" type="line"/>
      <point x="67" y="420" type="line"/>
      <point x="63" y="427" type="line"/>
      <point x="65" y="440" type="line"/>
      <point x="76" y="443" type="line"/>
      <point x="83" y="458" type="line"/>
      <point x="79" y="473" type="line"/>
      <point x="71" y="476" type="line"/>
      <point x="70" y="486" type="line"/>
      <point x="60" y="489" type="line"/>
      <point x="58" y="502" type="line"/>
      <point x="63" y="511" type="line"/>
      <point x="60" y="518" type="line"/>
      <point x="71" y="523" type="line"/>
      <point x="79" y="523" type="line"/>
      <point x="76" y="533" type="line"/>
      <point x="82" y="545" type="line"/>
      <point x="79" y="558" type="line"/>
      <point x="69" y="563" type="line"/>
      <point x="68" y="574" type="line"/>
      <point x="78" y="582" type="line"/>
      <point x="90" y="584" type="line"/>
      <point x="103" y="590" type="line"/>
      <point x="112" y="582" type="line"/>
      <point x="120" y="586" type="line"/>
      <point x="121" y="599" type="line"/>
      <point x="127" y="601" type="line"/>
      <point x="123" y="611" type="line"/>
      <point x="128" y="618" type="line"/>
      <point x="141" y="620" type="line"/>
      <point x="143" y="630" type="line"/>
      <point x="148" y="639" type="line"/>
      <point x="142" y="643" type="line"/>
      <point x="148" y="651" type="line"/>
      <point x="150" y="660" type="line"/>
      <point x="160" y="658" type="line"/>
      <point x="167" y="645" type="line"/>
      <point x="168" y="629" type="line"/>
      <point x="173" y="620" type="line"/>
      <point x="179" y="624" type="line"/>
      <point x="177" y="638" type="line"/>
      <point x="188" y="656" type="line"/>
      <point x="200" y="656" type="line"/>
      <point x="207" y="673" type="line"/>
      <point x="215" y="671" type="line"/>
      <point x="218" y="659" type="line"/>
      <point x="235" y="646" type="line"/>
      <point x="236" y="634" type="line"/>
      <point x="238" y="624" type="line"/>
      <point x="243" y="620" type="line"/>
      <point x="250" y="628" type="line"/>
      <point x="247" y="630" type="line"/>
      <point x="250" y="648" type="line"/>
      <point x="247" y="660" type="line"/>
      <point x="266" y="664" type="line"/>
      <point x="274" y="653" type="line"/>
      <point x="266" y="643" type="line"/>
      <point x="267" y="633" type="line"/>
      <point x="275" y="629" type="line"/>
      <point x="284" y="613" type="line"/>
      <point x="291" y="604" type="line"/>
      <point x="290" y="584" type="line"/>
      <point x="296" y="576" type="line"/>
      <point x="313" y="584" type="line"/>
      <point x="319" y="590" type="line"/>
      <point x="328" y="587" type="line"/>
      <point x="342" y="586" type="line"/>
      <point x="346" y="579" type="line"/>
      <point x="336" y="571" type="line"/>
      <point x="330" y="553" type="line"/>
      <point x="335" y="530" type="line"/>
      <point x="336" y="523" type="line"/>
      <point x="346" y="520" type="line"/>
      <point x="351" y="514" type="line"/>
      <point x="342" y="502" type="line"/>
      <point x="343" y="497" type="line"/>
      <point x="354" y="492" type="line"/>
    </contour>
  </outline>
</glyph>
<glyph name="hyphen" format="1">
  <advance width="310"/>
  <unicode hex="002D"/>
  <unicode hex="2010"/>
  <unicode hex="2011"/>
  <outline>
    <contour>
      <point x="260" y="354" type="line"/>
      <point x="257" y="345" type="line"/>
      <point x="245" y="339" type="line"/>
      <point x="252" y="330" type="line"/>
      <point x="248" y="309" type="line"/>
      <point x="253" y="300" type="line"/>
      <point x="253" y="281" type="line"/>
      <point x="243" y="279" type="line"/>
      <point x="232" y="285" type="line"/>
      <point x="208" y="288" type="line"/>
      <point x="194" y="282" type="line"/>
      <point x="166" y="286" type="line"/>
      <point x="144" y="280" type="line"/>
      <point x="115" y="279" type="line"/>
      <point x="103" y="287" type="line"/>
      <point x="82" y="289" type="line"/>
      <point x="70" y="280" type="line"/>
      <point x="54" y="281" type="line"/>
      <point x="52" y="294" type="line"/>
      <point x="46" y="299" type="line"/>
      <point x="58" y="307" type="line"/>
      <point x="73" y="305" type="line"/>
      <point x="68" y="320" type="line"/>
      <point x="72" y="333" type="line"/>
      <point x="59" y="337" type="line"/>
      <point x="49" y="352" type="line"/>
      <point x="59" y="350" type="line"/>
      <point x="73" y="359" type="line"/>
      <point x="90" y="354" type="line"/>
      <point x="111" y="354" type="line"/>
      <point x="116" y="350" type="line"/>
      <point x="144" y="352" type="line"/>
      <point x="162" y="346" type="line"/>
      <point x="187" y="354" type="line"/>
      <point x="195" y="350" type="line"/>
      <point x="203" y="357" type="line"/>
      <point x="224" y="353" type="line"/>
      <point x="238" y="357" type="line"/>
    </contour>
  </outline>
</glyph>
<glyph name="period" format="1">
  <advance width="230"/>
  <unicode hex="002E"/>
  <outline>
    <contour>
      <point x="181" y="83" type="line"/>
      <point x="176" y="72" type="line"/>
      <point x="179" y="55" type="line"/>
      <point x="172" y="40" type="line"/>
      <point x="174" y="26" type="line"/>
      <point x="164" y="16" type="line"/>
      <point x="162" y="4" type="line"/>
      <point x="151" y="4" type="line"/>
      <point x="137" y="-5" type="line"/>
      <point x="120" y="-1" type="line"/>
      <point x="112" y="-12" type="line"/>
      <point x="101" y="-14" type="line"/>
      <point x="101" y="-6" type="line"/>
      <point x="87" y="7" type="line"/>
      <point x="74" y="9" type="line"/>
      <point x="65" y="27" type="line"/>
      <point x="70" y="40" type="line"/>
      <point x="67" y="55" type="line"/>
      <point x="60" y="56" type="line"/>
      <point x="66" y="78" type="line"/>
      <point x="84" y="91" type="line"/>
      <point x="93" y="107" type="line"/>
      <point x="108" y="104" type="line"/>
      <point x="126" y="111" type="line"/>
      <point x="148" y="106" type="line"/>
      <point x="152" y="92" type="line"/>
      <point x="166" y="82" type="line"/>
    </contour>
  </outline>
</glyph>
<glyph name="slash" format="1">
  <advance width="440"/>
  <unicode hex="002F"/>
  <outline>
    <contour>
      <point x="419" y="615" type="line"/>
      <point x="407" y="607" type="line"/>
      <point x="395" y="589" type="line"/>
      <point x="396" y="575" type="line"/>
      <point x="384" y="564" type="line"/>
      <point x="377" y="546" type="line"/>
      <point x="370" y="544" type="line"/>
      <point x="360" y="521" type="line"/>
      <point x="347" y="509" type="line"/>
      <point x="347" y="496" type="line"/>
      <point x="330" y="476" type="line"/>
      <point x="331" y="466" type="line"/>
      <point x="318" y="445" type="line"/>
      <point x="321" y="442" type="line"/>
      <point x="301" y="420" type="line"/>
      <point x="285" y="385" type="line"/>
      <point x="266" y="366" type="line"/>
      <point x="257" y="342" type="line"/>
      <point x="260" y="339" type="line"/>
      <point x="247" y="333" type="line"/>
      <point x="244" y="318" type="line"/>
      <point x="227" y="303" type="line"/>
      <point x="229" y="295" type="line"/>
      <point x="212" y="256" type="line"/>
      <point x="203" y="250" type="line"/>
      <point x="194" y="227" type="line"/>
      <point x="180" y="210" type="line"/>
      <point x="179" y="197" type="line"/>
      <point x="165" y="174" type="line"/>
      <point x="155" y="167" type="line"/>
      <point x="133" y="131" type="line"/>
      <point x="122" y="99" type="line"/>
      <point x="117" y="95" type="line"/>
      <point x="112" y="80" type="line"/>
      <point x="101" y="71" type="line"/>
      <point x="104" y="60" type="line"/>
      <point x="99" y="60" type="line"/>
      <point x="88" y="43" type="line"/>
      <point x="82" y="24" type="line"/>
      <point x="72" y="21" type="line"/>
      <point x="63" y="3" type="line"/>
      <point x="65" y="-4" type="line"/>
      <point x="50" y="-13" type="line"/>
      <point x="45" y="-27" type="line"/>
      <point x="34" y="-24" type="line"/>
      <point x="28" y="-9" type="line"/>
      <point x="30" y="9" type="line"/>
      <point x="21" y="14" type="line"/>
      <point x="30" y="30" type="line"/>
      <point x="26" y="39" type="line"/>
      <point x="45" y="55" type="line"/>
      <point x="46" y="66" type="line"/>
      <point x="60" y="79" type="line"/>
      <point x="62" y="91" type="line"/>
      <point x="84" y="121" type="line"/>
      <point x="84" y="129" type="line"/>
      <point x="104" y="149" type="line"/>
      <point x="113" y="176" type="line"/>
      <point x="128" y="194" type="line"/>
      <point x="129" y="203" type="line"/>
      <point x="139" y="209" type="line"/>
      <point x="140" y="218" type="line"/>
      <point x="154" y="240" type="line"/>
      <point x="160" y="263" type="line"/>
      <point x="170" y="271" type="line"/>
      <point x="181" y="295" type="line"/>
      <point x="181" y="307" type="line"/>
      <point x="192" y="319" type="line"/>
      <point x="187" y="323" type="line"/>
      <point x="198" y="328" type="line"/>
      <point x="206" y="340" type="line"/>
      <point x="205" y="354" type="line"/>
      <point x="211" y="355" type="line"/>
      <point x="218" y="372" type="line"/>
      <point x="230" y="381" type="line"/>
      <point x="241" y="399" type="line"/>
      <point x="241" y="408" type="line"/>
      <point x="255" y="425" type="line"/>
      <point x="253" y="433" type="line"/>
      <point x="264" y="443" type="line"/>
      <point x="271" y="460" type="line"/>
      <point x="282" y="468" type="line"/>
      <point x="279" y="477" type="line"/>
      <point x="292" y="496" type="line"/>
      <point x="301" y="497" type="line"/>
      <point x="303" y="514" type="line"/>
      <point x="310" y="520" type="line"/>
      <point x="316" y="541" type="line"/>
      <point x="325" y="545" type="line"/>
      <point x="335" y="570" type="line"/>
      <point x="345" y="574" type="line"/>
      <point x="354" y="595" type="line"/>
      <point x="354" y="608" type="line"/>
      <point x="369" y="620" type="line"/>
      <point x="377" y="641" type="line"/>
      <point x="373" y="643" type="line"/>
      <point x="377" y="654" type="line"/>
      <point x="398" y="663" type="line"/>
      <point x="403" y="656" type="line"/>
      <point x="407" y="660" type="line"/>
      <point x="415" y="634" type="line"/>
      <point x="411" y="626" type="line"/>
    </contour>
  </outline>
</glyph>
<glyph name="zero" format="1">
  <advance width="600"/>
  <unicode hex="0030"/>
  <outline>
    <contour>
      <point x="566" y="292" type="line"/>
      <point x="561" y="291" type="line"/>
      <point x="555" y="273" type="line"/>
      <point x="560" y="248" type="line"/>
      <point x="548" y="237" type="line"/>
      <point x="551" y="211" type="line"/>
      <point x="529" y="177" type="line"/>
      <point x="532" y="175" type="line"/>
      <point x="520" y="156" type="line"/>
      <point x="524" y="153" type="line"/>
      <point x="515" y="144" type="line"/>
      <point x="517" y="125" type="line"/>
      <point x="503" y="111" type="line"/>
      <point x="486" y="79" type="line"/>
      <point x="491" y="75" type="line"/>
      <point x="485" y="57" type="line"/>
      <point x="469" y="45" type="line"/>
      <point x="453" y="49" type="line"/>
      <point x="444" y="30" type="line"/>
      <point x="426" y="16" type="line"/>
      <point x="423" y="20" type="line"/>
      <point x="404" y="3" type="line"/>
      <point x="384" y="-5" type="line"/>
      <point x="377" y="-22" type="line"/>
      <point x="368" y="-27" type="line"/>
      <point x="365" y="-21" type="line"/>
      <point x="345" y="-17" type="line"/>
      <point x="338" y="-26" type="line"/>
      <point x="311" y="-27" type="line"/>
      <point x="296" y="-22" type="line"/>
      <point x="286" y="-31" type="line"/>
      <point x="284" y="-27" type="line"/>
      <point x="254" y="-28" type="line"/>
      <point x="247" y="-17" type="line"/>
      <point x="227" y="-8" type="line"/>
      <point x="220" y="4" type="line"/>
      <point x="206" y="-2" type="line"/>
      <point x="204" y="5" type="line"/>
      <point x="189" y="20" type="line"/>
      <point x="171" y="22" type="line"/>
      <point x="165" y="32" type="line"/>
      <point x="147" y="38" type="line"/>
      <point x="132" y="65" type="line"/>
      <point x="122" y="65" type="line"/>
      <point x="129" y="71" type="line"/>
      <point x="111" y="80" type="line"/>
      <point x="113" y="83" type="line"/>
      <point x="102" y="108" type="line"/>
      <point x="107" y="110" type="line"/>
      <point x="87" y="144" type="line"/>
      <point x="89" y="156" type="line"/>
      <point x="76" y="177" type="line"/>
      <point x="62" y="183" type="line"/>
      <point x="62" y="192" type="line"/>
      <point x="52" y="209" type="line"/>
      <point x="49" y="236" type="line"/>
      <point x="40" y="240" type="line"/>
      <point x="46" y="252" type="line"/>
      <point x="45" y="284" type="line"/>
      <point x="37" y="287" type="line"/>
      <point x="34" y="317" type="line"/>
      <point x="39" y="327" type="line"/>
      <point x="33" y="341" type="line"/>
      <point x="42" y="351" type="line"/>
      <point x="46" y="372" type="line"/>
      <point x="38" y="405" type="line"/>
      <point x="44" y="409" type="line"/>
      <point x="44" y="429" type="line"/>
      <point x="53" y="442" type="line"/>
      <point x="51" y="455" type="line"/>
      <point x="68" y="460" type="line"/>
      <point x="76" y="453" type="line"/>
      <point x="71" y="439" type="line"/>
      <point x="75" y="435" type="line"/>
      <point x="71" y="418" type="line"/>
      <point x="75" y="396" type="line"/>
      <point x="71" y="394" type="line"/>
      <point x="77" y="380" type="line"/>
      <point x="71" y="359" type="line"/>
      <point x="80" y="347" type="line"/>
      <point x="92" y="363" type="line"/>
      <point x="87" y="394" type="line"/>
      <point x="96" y="403" type="line"/>
      <point x="92" y="442" type="line"/>
      <point x="96" y="456" type="line"/>
      <point x="87" y="466" type="line"/>
      <point x="89" y="491" type="line"/>
      <point x="98" y="496" type="line"/>
      <point x="92" y="505" type="line"/>
      <point x="102" y="505" type="line"/>
      <point x="107" y="520" type="line"/>
      <point x="104" y="535" type="line"/>
      <point x="117" y="547" type="line"/>
      <point x="115" y="563" type="line"/>
      <point x="127" y="583" type="line"/>
      <point x="149" y="588" type="line"/>
      <point x="172" y="603" type="line"/>
      <point x="169" y="609" type="line"/>
      <point x="184" y="613" type="line"/>
      <point x="196" y="632" type="line"/>
      <point x="211" y="645" type="line"/>
      <point x="223" y="645" type="line"/>
      <point x="234" y="661" type="line"/>
      <point x="247" y="669" type="line"/>
      <point x="247" y="663" type="line"/>
      <point x="274" y="663" type="line"/>
      <point x="280" y="669" type="line"/>
      <point x="309" y="662" type="line"/>
      <point x="332" y="663" type="line"/>
      <point x="354" y="675" type="line"/>
      <point x="363" y="663" type="line"/>
      <point x="375" y="669" type="line"/>
      <point x="384" y="663" type="line"/>
      <point x="384" y="648" type="line"/>
      <point x="412" y="642" type="line"/>
      <point x="430" y="630" type="line"/>
      <point x="426" y="623" type="line"/>
      <point x="453" y="617" type="line"/>
      <point x="474" y="601" type="line"/>
      <point x="482" y="599" type="line"/>
      <point x="489" y="569" type="line"/>
      <point x="499" y="565" type="line"/>
      <point x="502" y="541" type="line"/>
      <point x="515" y="524" type="line"/>
      <point x="511" y="518" type="line"/>
      <point x="527" y="489" type="line"/>
      <point x="526" y="456" type="line"/>
      <point x="537" y="455" type="line"/>
      <point x="553" y="439" type="line"/>
      <point x="547" y="427" type="line"/>
      <point x="551" y="411" type="line"/>
      <point x="560" y="409" type="line"/>
      <point x="557" y="382" type="line"/>
      <point x="562" y="384" type="line"/>
      <point x="562" y="363" type="line"/>
      <point x="558" y="353" type="line"/>
      <point x="563" y="329" type="line"/>
      <point x="558" y="308" type="line"/>
    </contour>
    <contour>
      <point x="549" y="330" type="line"/>
      <point x="542" y="335" type="line"/>
      <point x="541" y="352" type="line"/>
      <point x="545" y="382" type="line"/>
      <point x="539" y="394" type="line"/>
      <point x="538" y="414" type="line"/>
      <point x="527" y="423" type="line"/>
      <point x="529" y="405" type="line"/>
      <point x="524" y="398" type="line"/>
      <point x="529" y="379" type="line"/>
      <point x="524" y="363" type="line"/>
      <point x="531" y="344" type="line"/>
      <point x="528" y="326" type="line"/>
      <point x="532" y="304" type="line"/>
      <point x="524" y="292" type="line"/>
      <point x="532" y="287" type="line"/>
      <point x="524" y="263" type="line"/>
      <point x="527" y="240" type="line"/>
      <point x="520" y="223" type="line"/>
      <point x="526" y="217" type="line"/>
      <point x="527" y="199" type="line"/>
      <point x="532" y="205" type="line"/>
      <point x="535" y="230" type="line"/>
      <point x="538" y="229" type="line"/>
      <point x="542" y="242" type="line"/>
      <point x="539" y="267" type="line"/>
      <point x="542" y="284" type="line"/>
      <point x="538" y="292" type="line"/>
      <point x="544" y="302" type="line"/>
      <point x="542" y="320" type="line"/>
    </contour>
    <contour>
      <point x="482" y="318" type="line"/>
      <point x="477" y="335" type="line"/>
      <point x="460" y="329" type="line"/>
      <point x="462" y="296" type="line"/>
      <point x="453" y="284" type="line"/>
      <point x="451" y="253" type="line"/>
      <point x="456" y="244" type="line"/>
      <point x="451" y="237" type="line"/>
      <point x="450" y="223" type="line"/>
      <point x="458" y="211" type="line"/>
      <point x="460" y="229" type="line"/>
      <point x="469" y="245" type="line"/>
      <point x="466" y="268" type="line"/>
      <point x="475" y="279" type="line"/>
      <point x="475" y="299" type="line"/>
    </contour>
    <contour>
      <point x="373" y="541" type="line"/>
      <point x="372" y="563" type="line"/>
      <point x="364" y="562" type="line"/>
      <point x="354" y="586" type="line"/>
      <point x="340" y="595" type="line"/>
      <point x="332" y="611" type="line"/>
      <point x="306" y="615" type="line"/>
      <point x="284" y="606" type="line"/>
      <point x="269" y="608" type="line"/>
      <point x="272" y="599" type="line"/>
      <point x="285" y="593" type="line"/>
      <point x="283" y="581" type="line"/>
      <point x="265" y="575" type="line"/>
      <point x="254" y="580" type="line"/>
      <point x="241" y="572" type="line"/>
      <point x="229" y="584" type="line"/>
      <point x="239" y="593" type="line"/>
      <point x="244" y="604" type="line"/>
      <point x="258" y="608" type="line"/>
      <point x="254" y="617" type="line"/>
      <point x="271" y="623" type="line"/>
      <point x="278" y="630" type="line"/>
      <point x="263" y="632" type="line"/>
      <point x="245" y="626" type="line"/>
      <point x="225" y="602" type="line"/>
      <point x="216" y="575" type="line"/>
      <point x="202" y="568" type="line"/>
      <point x="205" y="545" type="line"/>
      <point x="193" y="523" type="line"/>
      <point x="197" y="509" type="line"/>
      <point x="183" y="496" type="line"/>
      <point x="185" y="485" type="line"/>
      <point x="172" y="473" type="line"/>
      <point x="178" y="451" type="line"/>
      <point x="175" y="413" type="line"/>
      <point x="169" y="402" type="line"/>
      <point x="174" y="366" type="line"/>
      <point x="168" y="359" type="line"/>
      <point x="181" y="350" type="line"/>
      <point x="183" y="326" type="line"/>
      <point x="192" y="313" type="line"/>
      <point x="184" y="312" type="line"/>
      <point x="188" y="295" type="line"/>
      <point x="200" y="283" type="line"/>
      <point x="221" y="291" type="line"/>
      <point x="224" y="302" type="line"/>
      <point x="220" y="308" type="line"/>
      <point x="232" y="313" type="line"/>
      <point x="241" y="308" type="line"/>
      <point x="241" y="292" type="line"/>
      <point x="250" y="277" type="line"/>
      <point x="263" y="277" type="line"/>
      <point x="272" y="287" type="line"/>
      <point x="269" y="296" type="line"/>
      <point x="287" y="313" type="line"/>
      <point x="289" y="333" type="line"/>
      <point x="304" y="350" type="line"/>
      <point x="315" y="372" type="line"/>
      <point x="336" y="390" type="line"/>
      <point x="344" y="413" type="line"/>
      <point x="349" y="411" type="line"/>
      <point x="348" y="432" type="line"/>
      <point x="360" y="451" type="line"/>
      <point x="363" y="478" type="line"/>
      <point x="358" y="475" type="line"/>
      <point x="369" y="518" type="line"/>
      <point x="365" y="523" type="line"/>
    </contour>
    <contour>
      <point x="441" y="283" type="line"/>
      <point x="430" y="290" type="line"/>
      <point x="434" y="295" type="line"/>
      <point x="423" y="313" type="line"/>
      <point x="421" y="333" type="line"/>
      <point x="426" y="335" type="line"/>
      <point x="423" y="352" type="line"/>
      <point x="408" y="359" type="line"/>
      <point x="393" y="351" type="line"/>
      <point x="395" y="341" type="line"/>
      <point x="386" y="339" type="line"/>
      <point x="379" y="330" type="line"/>
      <point x="368" y="344" type="line"/>
      <point x="368" y="357" type="line"/>
      <point x="355" y="364" type="line"/>
      <point x="349" y="351" type="line"/>
      <point x="334" y="333" type="line"/>
      <point x="334" y="319" type="line"/>
      <point x="320" y="299" type="line"/>
      <point x="312" y="300" type="line"/>
      <point x="315" y="290" type="line"/>
      <point x="303" y="284" type="line"/>
      <point x="286" y="255" type="line"/>
      <point x="289" y="251" type="line"/>
      <point x="278" y="244" type="line"/>
      <point x="265" y="220" type="line"/>
      <point x="269" y="216" type="line"/>
      <point x="250" y="192" type="line"/>
      <point x="247" y="166" type="line"/>
      <point x="258" y="144" type="line"/>
      <point x="251" y="130" type="line"/>
      <point x="242" y="127" type="line"/>
      <point x="239" y="99" type="line"/>
      <point x="249" y="88" type="line"/>
      <point x="254" y="70" type="line"/>
      <point x="263" y="78" type="line"/>
      <point x="275" y="60" type="line"/>
      <point x="287" y="55" type="line"/>
      <point x="278" y="45" type="line"/>
      <point x="296" y="38" type="line"/>
      <point x="302" y="30" type="line"/>
      <point x="320" y="38" type="line"/>
      <point x="332" y="32" type="line"/>
      <point x="345" y="38" type="line"/>
      <point x="346" y="47" type="line"/>
      <point x="334" y="45" type="line"/>
      <point x="323" y="54" type="line"/>
      <point x="339" y="63" type="line"/>
      <point x="358" y="63" type="line"/>
      <point x="360" y="72" type="line"/>
      <point x="376" y="89" type="line"/>
      <point x="386" y="84" type="line"/>
      <point x="384" y="68" type="line"/>
      <point x="377" y="62" type="line"/>
      <point x="389" y="53" type="line"/>
      <point x="401" y="71" type="line"/>
      <point x="406" y="90" type="line"/>
      <point x="393" y="92" type="line"/>
      <point x="408" y="110" type="line"/>
      <point x="401" y="116" type="line"/>
      <point x="408" y="135" type="line"/>
      <point x="420" y="145" type="line"/>
      <point x="432" y="171" type="line"/>
      <point x="436" y="171" type="line"/>
      <point x="429" y="190" type="line"/>
      <point x="437" y="218" type="line"/>
      <point x="431" y="232" type="line"/>
      <point x="434" y="263" type="line"/>
    </contour>
    <contour>
      <point x="159" y="413" type="line"/>
      <point x="156" y="435" type="line"/>
      <point x="151" y="440" type="line"/>
      <point x="143" y="421" type="line"/>
      <point x="145" y="408" type="line"/>
      <point x="136" y="398" type="line"/>
      <point x="143" y="389" type="line"/>
      <point x="137" y="387" type="line"/>
      <point x="139" y="369" type="line"/>
      <point x="132" y="347" type="line"/>
      <point x="136" y="333" type="line"/>
      <point x="132" y="322" type="line"/>
      <point x="141" y="311" type="line"/>
      <point x="138" y="305" type="line"/>
      <point x="152" y="308" type="line"/>
      <point x="147" y="326" type="line"/>
      <point x="156" y="344" type="line"/>
      <point x="152" y="362" type="line"/>
      <point x="158" y="379" type="line"/>
      <point x="155" y="407" type="line"/>
    </contour>
    <contour>
      <point x="90" y="250" type="line"/>
      <point x="84" y="257" type="line"/>
      <point x="89" y="273" type="line"/>
      <point x="89" y="290" type="line"/>
      <point x="77" y="302" type="line"/>
      <point x="79" y="293" type="line"/>
      <point x="72" y="281" type="line"/>
      <point x="78" y="268" type="line"/>
      <point x="73" y="249" type="line"/>
      <point x="75" y="232" type="line"/>
      <point x="81" y="224" type="line"/>
      <point x="87" y="229" type="line"/>
    </contour>
  </outline>
</glyph>
<glyph name="three" format="1">
  <advance width="460"/>
  <unicode hex="0033"/>
  <outline>
    <contour>
      <point x="431" y="211" type="line"/>
      <point x="424" y="209" type="line"/>
      <point x="417" y="192" type="line"/>
      <point x="415" y="168" type="line"/>
      <point x="420" y="159" type="line"/>
      <point x="411" y="144" type="line"/>
      <point x="413" y="125" type="line"/>
      <point x="402" y="127" type="line"/>
      <point x="396" y="135" type="line"/>
      <point x="396" y="153" type="line"/>
      <point x="402" y="165" type="line"/>
      <point x="398" y="178" type="line"/>
      <point x="389" y="183" type="line"/>
      <point x="380" y="177" type="line"/>
      <point x="385" y="166" type="line"/>
      <point x="378" y="147" type="line"/>
      <point x="387" y="123" type="line"/>
      <point x="380" y="114" type="line"/>
      <point x="378" y="96" type="line"/>
      <point x="368" y="87" type="line"/>
      <point x="371" y="71" type="line"/>
      <point x="357" y="57" type="line"/>
      <point x="350" y="45" type="line"/>
      <point x="341" y="50" type="line"/>
      <point x="335" y="40" type="line"/>
      <point x="321" y="32" type="line"/>
      <point x="321" y="21" type="line"/>
      <point x="297" y="12" type="line"/>
      <point x="284" y="2" type="line"/>
      <point x="287" y="-1" type="line"/>
      <point x="265" y="-8" type="line"/>
      <point x="263" y="-17" type="line"/>
      <point x="248" y="-20" type="line"/>
      <point x="233" y="-31" type="line"/>
      <point x="222" y="-25" type="line"/>
      <point x="197" y="-27" type="line"/>
      <point x="190" y="-37" type="line"/>
      <point x="172" y="-31" type="line"/>
      <point x="166" y="-39" type="line"/>
      <point x="162" y="-31" type="line"/>
      <point x="145" y="-35" type="line"/>
      <point x="137" y="-31" type="line"/>
      <point x="109" y="-32" type="line"/>
      <point x="92" y="-38" type="line"/>
      <point x="84" y="-24" type="line"/>
      <point x="70" y="-17" type="line"/>
      <point x="67" y="-8" type="line"/>
      <point x="47" y="-12" type="line"/>
      <point x="24" y="-6" type="line"/>
      <point x="20" y="5" type="line"/>
      <point x="27" y="6" type="line"/>
      <point x="31" y="12" type="line"/>
      <point x="46" y="5" type="line"/>
      <point x="68" y="11" type="line"/>
      <point x="87" y="3" type="line"/>
      <point x="104" y="10" type="line"/>
      <point x="134" y="9" type="line"/>
      <point x="159" y="1" type="line"/>
      <point x="166" y="10" type="line"/>
      <point x="169" y="5" type="line"/>
      <point x="195" y="4" type="line"/>
      <point x="210" y="13" type="line"/>
      <point x="216" y="3" type="line"/>
      <point x="229" y="5" type="line"/>
      <point x="236" y="21" type="line"/>
      <point x="255" y="30" type="line"/>
      <point x="268" y="31" type="line"/>
      <point x="274" y="50" type="line"/>
      <point x="288" y="55" type="line"/>
      <point x="284" y="66" type="line"/>
      <point x="294" y="81" type="line"/>
      <point x="280" y="83" type="line"/>
      <point x="267" y="70" type="line"/>
      <point x="263" y="71" type="line"/>
      <point x="281" y="99" type="line"/>
      <point x="282" y="117" type="line"/>
      <point x="296" y="137" type="line"/>
      <point x="294" y="142" type="line"/>
      <point x="303" y="161" type="line"/>
      <point x="298" y="183" type="line"/>
      <point x="286" y="187" type="line"/>
      <point x="280" y="199" type="line"/>
      <point x="284" y="219" type="line"/>
      <point x="278" y="242" type="line"/>
      <point x="288" y="255" type="line"/>
      <point x="289" y="275" type="line"/>
      <point x="282" y="273" type="line"/>
      <point x="274" y="280" type="line"/>
      <point x="247" y="275" type="line"/>
      <point x="218" y="280" type="line"/>
      <point x="211" y="275" type="line"/>
      <point x="199" y="291" type="line"/>
      <point x="185" y="296" type="line"/>
      <point x="176" y="312" type="line"/>
      <point x="155" y="314" type="line"/>
      <point x="135" y="327" type="line"/>
      <point x="115" y="327" type="line"/>
      <point x="111" y="337" type="line"/>
      <point x="99" y="344" type="line"/>
      <point x="114" y="349" type="line"/>
      <point x="120" y="360" type="line"/>
      <point x="135" y="359" type="line"/>
      <point x="148" y="372" type="line"/>
      <point x="157" y="369" type="line"/>
      <point x="166" y="389" type="line"/>
      <point x="177" y="396" type="line"/>
      <point x="171" y="405" type="line"/>
      <point x="185" y="408" type="line"/>
      <point x="196" y="420" type="line"/>
      <point x="202" y="414" type="line"/>
      <point x="222" y="418" type="line"/>
      <point x="233" y="430" type="line"/>
      <point x="244" y="420" type="line"/>
      <point x="255" y="431" type="line"/>
      <point x="263" y="432" type="line"/>
      <point x="268" y="445" type="line"/>
      <point x="265" y="456" type="line"/>
      <point x="252" y="458" type="line"/>
      <point x="244" y="469" type="line"/>
      <point x="259" y="477" type="line"/>
      <point x="265" y="494" type="line"/>
      <point x="265" y="508" type="line"/>
      <point x="254" y="515" type="line"/>
      <point x="244" y="532" type="line"/>
      <point x="251" y="545" type="line"/>
      <point x="242" y="561" type="line"/>
      <point x="228" y="564" type="line"/>
      <point x="213" y="576" type="line"/>
      <point x="189" y="575" type="line"/>
      <point x="196" y="582" type="line"/>
      <point x="205" y="581" type="line"/>
      <point x="216" y="590" type="line"/>
      <point x="204" y="606" type="line"/>
      <point x="185" y="610" type="line"/>
      <point x="168" y="621" type="line"/>
      <point x="132" y="617" type="line"/>
      <point x="128" y="624" type="line"/>
      <point x="101" y="621" type="line"/>
      <point x="96" y="612" type="line"/>
      <point x="86" y="617" type="line"/>
      <point x="86" y="631" type="line"/>
      <point x="81" y="637" type="line"/>
      <point x="94" y="642" type="line"/>
      <point x="90" y="651" type="line"/>
      <point x="111" y="658" type="line"/>
      <point x="122" y="655" type="line"/>
      <point x="137" y="663" type="line"/>
      <point x="159" y="661" type="line"/>
      <point x="180" y="663" type="line"/>
      <point x="189" y="655" type="line"/>
      <point x="210" y="656" type="line"/>
      <point x="229" y="664" type="line"/>
      <point x="247" y="654" type="line"/>
      <point x="249" y="645" type="line"/>
      <point x="269" y="632" type="line"/>
      <point x="287" y="630" type="line"/>
      <point x="287" y="623" type="line"/>
      <point x="310" y="616" type="line"/>
      <point x="326" y="604" type="line"/>
      <point x="334" y="605" type="line"/>
      <point x="332" y="584" type="line"/>
      <point x="342" y="579" type="line"/>
      <point x="349" y="559" type="line"/>
      <point x="363" y="541" type="line"/>
      <point x="357" y="538" type="line"/>
      <point x="351" y="521" type="line"/>
      <point x="356" y="499" type="line"/>
      <point x="352" y="482" type="line"/>
      <point x="339" y="469" type="line"/>
      <point x="344" y="465" type="line"/>
      <point x="344" y="442" type="line"/>
      <point x="335" y="430" type="line"/>
      <point x="331" y="405" type="line"/>
      <point x="335" y="400" type="line"/>
      <point x="323" y="389" type="line"/>
      <point x="322" y="369" type="line"/>
      <point x="335" y="347" type="line"/>
      <point x="347" y="342" type="line"/>
      <point x="354" y="313" type="line"/>
      <point x="363" y="309" type="line"/>
      <point x="358" y="293" type="line"/>
      <point x="347" y="299" type="line"/>
      <point x="336" y="293" type="line"/>
      <point x="341" y="284" type="line"/>
      <point x="352" y="280" type="line"/>
      <point x="358" y="266" type="line"/>
      <point x="371" y="255" type="line"/>
      <point x="374" y="235" type="line"/>
      <point x="384" y="226" type="line"/>
      <point x="384" y="214" type="line"/>
      <point x="394" y="205" type="line"/>
      <point x="404" y="211" type="line"/>
      <point x="415" y="210" type="line"/>
      <point x="415" y="221" type="line"/>
      <point x="426" y="220" type="line"/>
    </contour>
    <contour>
      <point x="248" y="611" type="line"/>
      <point x="241" y="617" type="line"/>
      <point x="231" y="614" type="line"/>
      <point x="216" y="621" type="line"/>
      <point x="223" y="610" type="line"/>
      <point x="237" y="606" type="line"/>
      <point x="243" y="596" type="line"/>
    </contour>
  </outline>
</glyph>
<glyph name="nine" format="1">
  <advance width="560"/>
  <unicode hex="0039"/>
  <outline>
    <contour>
      <point x="514" y="318" type="line"/>
      <point x="510" y="294" type="line"/>
      <point x="512" y="276" type="line"/>
      <point x="500" y="262" type="line"/>
      <point x="504" y="239" type="line"/>
      <point x="500" y="231" type="line"/>
      <point x="500" y="211" type="line"/>
      <point x="495" y="199" type="line"/>
      <point x="485" y="215" type="line"/>
      <point x="485" y="226" type="line"/>
      <point x="478" y="235" type="line"/>
      <point x="476" y="257" type="line"/>
      <point x="481" y="273" type="line"/>
      <point x="481" y="291" type="line"/>
      <point x="470" y="300" type="line"/>
      <point x="467" y="291" type="line"/>
      <point x="460" y="291" type="line"/>
      <point x="461" y="269" type="line"/>
      <point x="452" y="261" type="line"/>
      <point x="458" y="247" type="line"/>
      <point x="455" y="221" type="line"/>
      <point x="460" y="208" type="line"/>
      <point x="455" y="181" type="line"/>
      <point x="444" y="160" type="line"/>
      <point x="450" y="160" type="line"/>
      <point x="446" y="145" type="line"/>
      <point x="433" y="135" type="line"/>
      <point x="428" y="118" type="line"/>
      <point x="431" y="109" type="line"/>
      <point x="419" y="102" type="line"/>
      <point x="412" y="91" type="line"/>
      <point x="394" y="88" type="line"/>
      <point x="393" y="78" type="line"/>
      <point x="379" y="64" type="line"/>
      <point x="380" y="55" type="line"/>
      <point x="364" y="48" type="line"/>
      <point x="364" y="39" type="line"/>
      <point x="355" y="39" type="line"/>
      <point x="333" y="24" type="line"/>
      <point x="324" y="24" type="line"/>
      <point x="316" y="9" type="line"/>
      <point x="313" y="12" type="line"/>
      <point x="297" y="1" type="line"/>
      <point x="279" y="5" type="line"/>
      <point x="264" y="-1" type="line"/>
      <point x="262" y="-7" type="line"/>
      <point x="251" y="-7" type="line"/>
      <point x="231" y="-17" type="line"/>
      <point x="215" y="-12" type="line"/>
      <point x="203" y="-17" type="line"/>
      <point x="179" y="-12" type="line"/>
      <point x="166" y="-17" type="line"/>
      <point x="155" y="-7" type="line"/>
      <point x="157" y="9" type="line"/>
      <point x="146" y="14" type="line"/>
      <point x="146" y="24" type="line"/>
      <point x="156" y="20" type="line"/>
      <point x="164" y="30" type="line"/>
      <point x="181" y="33" type="line"/>
      <point x="179" y="22" type="line"/>
      <point x="191" y="17" type="line"/>
      <point x="204" y="24" type="line"/>
      <point x="222" y="24" type="line"/>
      <point x="240" y="34" type="line"/>
      <point x="244" y="45" type="line"/>
      <point x="255" y="42" type="line"/>
      <point x="258" y="35" type="line"/>
      <point x="279" y="33" type="line"/>
      <point x="291" y="39" type="line"/>
      <point x="291" y="44" type="line"/>
      <point x="316" y="59" type="line"/>
      <point x="324" y="75" type="line"/>
      <point x="329" y="72" type="line"/>
      <point x="349" y="109" type="line"/>
      <point x="349" y="124" type="line"/>
      <point x="344" y="127" type="line"/>
      <point x="353" y="142" type="line"/>
      <point x="348" y="154" type="line"/>
      <point x="361" y="171" type="line"/>
      <point x="364" y="195" type="line"/>
      <point x="355" y="202" type="line"/>
      <point x="361" y="209" type="line"/>
      <point x="357" y="234" type="line"/>
      <point x="361" y="252" type="line"/>
      <point x="349" y="257" type="line"/>
      <point x="351" y="270" type="line"/>
      <point x="343" y="278" type="line"/>
      <point x="324" y="267" type="line"/>
      <point x="316" y="278" type="line"/>
      <point x="300" y="283" type="line"/>
      <point x="290" y="296" type="line"/>
      <point x="276" y="294" type="line"/>
      <point x="273" y="284" type="line"/>
      <point x="257" y="272" type="line"/>
      <point x="252" y="274" type="line"/>
      <point x="224" y="267" type="line"/>
      <point x="205" y="274" type="line"/>
      <point x="200" y="267" type="line"/>
      <point x="164" y="276" type="line"/>
      <point x="148" y="272" type="line"/>
      <point x="131" y="285" type="line"/>
      <point x="131" y="294" type="line"/>
      <point x="118" y="302" type="line"/>
      <point x="105" y="303" type="line"/>
      <point x="86" y="323" type="line"/>
      <point x="86" y="329" type="line"/>
      <point x="59" y="340" type="line"/>
      <point x="58" y="347" type="line"/>
      <point x="45" y="372" type="line"/>
      <point x="39" y="400" type="line"/>
      <point x="32" y="407" type="line"/>
      <point x="36" y="424" type="line"/>
      <point x="32" y="431" type="line"/>
      <point x="40" y="444" type="line"/>
      <point x="36" y="457" type="line"/>
      <point x="42" y="480" type="line"/>
      <point x="39" y="505" type="line"/>
      <point x="43" y="518" type="line"/>
      <point x="38" y="529" type="line"/>
      <point x="55" y="552" type="line"/>
      <point x="52" y="561" type="line"/>
      <point x="61" y="570" type="line"/>
      <point x="62" y="584" type="line"/>
      <point x="83" y="604" type="line"/>
      <point x="91" y="605" type="line"/>
      <point x="97" y="621" type="line"/>
      <point x="125" y="633" type="line"/>
      <point x="131" y="649" type="line"/>
      <point x="152" y="654" type="line"/>
      <point x="152" y="661" type="line"/>
      <point x="177" y="661" type="line"/>
      <point x="189" y="673" type="line"/>
      <point x="186" y="676" type="line"/>
      <point x="212" y="678" type="line"/>
      <point x="222" y="673" type="line"/>
      <point x="246" y="679" type="line"/>
      <point x="264" y="673" type="line"/>
      <point x="276" y="673" type="line"/>
      <point x="279" y="682" type="line"/>
      <point x="291" y="687" type="line"/>
      <point x="302" y="675" type="line"/>
      <point x="319" y="673" type="line"/>
      <point x="318" y="661" type="line"/>
      <point x="336" y="659" type="line"/>
      <point x="352" y="647" type="line"/>
      <point x="360" y="636" type="line"/>
      <point x="368" y="640" type="line"/>
      <point x="380" y="630" type="line"/>
      <point x="389" y="613" type="line"/>
      <point x="401" y="615" type="line"/>
      <point x="413" y="609" type="line"/>
      <point x="413" y="591" type="line"/>
      <point x="423" y="586" type="line"/>
      <point x="434" y="566" type="line"/>
      <point x="434" y="549" type="line"/>
      <point x="448" y="531" type="line"/>
      <point x="445" y="525" type="line"/>
      <point x="460" y="514" type="line"/>
      <point x="467" y="494" type="line"/>
      <point x="481" y="484" type="line"/>
      <point x="483" y="473" type="line"/>
      <point x="497" y="469" type="line"/>
      <point x="495" y="454" type="line"/>
      <point x="502" y="449" type="line"/>
      <point x="498" y="430" type="line"/>
      <point x="503" y="405" type="line"/>
      <point x="510" y="398" type="line"/>
      <point x="504" y="378" type="line"/>
      <point x="512" y="345" type="line"/>
      <point x="509" y="322" type="line"/>
    </contour>
    <contour>
      <point x="349" y="462" type="line"/>
      <point x="343" y="484" type="line"/>
      <point x="349" y="504" type="line"/>
      <point x="343" y="515" type="line"/>
      <point x="333" y="518" type="line"/>
      <point x="324" y="539" type="line"/>
      <point x="333" y="545" type="line"/>
      <point x="327" y="564" type="line"/>
      <point x="316" y="564" type="line"/>
      <point x="307" y="573" type="line"/>
      <point x="322" y="582" type="line"/>
      <point x="332" y="579" type="line"/>
      <point x="338" y="588" type="line"/>
      <point x="326" y="598" type="line"/>
      <point x="307" y="596" type="line"/>
      <point x="291" y="582" type="line"/>
      <point x="274" y="601" type="line"/>
      <point x="262" y="596" type="line"/>
      <point x="262" y="609" type="line"/>
      <point x="270" y="618" type="line"/>
      <point x="257" y="627" type="line"/>
      <point x="242" y="626" type="line"/>
      <point x="224" y="633" type="line"/>
      <point x="219" y="621" type="line"/>
      <point x="203" y="632" type="line"/>
      <point x="200" y="640" type="line"/>
      <point x="191" y="642" type="line"/>
      <point x="186" y="631" type="line"/>
      <point x="160" y="624" type="line"/>
      <point x="152" y="616" type="line"/>
      <point x="156" y="606" type="line"/>
      <point x="143" y="601" type="line"/>
      <point x="131" y="582" type="line"/>
      <point x="132" y="568" type="line"/>
      <point x="124" y="562" type="line"/>
      <point x="122" y="548" type="line"/>
      <point x="131" y="555" type="line"/>
      <point x="134" y="542" type="line"/>
      <point x="140" y="537" type="line"/>
      <point x="129" y="526" type="line"/>
      <point x="127" y="514" type="line"/>
      <point x="118" y="504" type="line"/>
      <point x="112" y="511" type="line"/>
      <point x="97" y="501" type="line"/>
      <point x="90" y="486" type="line"/>
      <point x="94" y="466" type="line"/>
      <point x="89" y="457" type="line"/>
      <point x="94" y="441" type="line"/>
      <point x="105" y="437" type="line"/>
      <point x="120" y="416" type="line"/>
      <point x="123" y="422" type="line"/>
      <point x="134" y="409" type="line"/>
      <point x="134" y="399" type="line"/>
      <point x="141" y="390" type="line"/>
      <point x="131" y="385" type="line"/>
      <point x="127" y="363" type="line"/>
      <point x="136" y="353" type="line"/>
      <point x="138" y="330" type="line"/>
      <point x="148" y="330" type="line"/>
      <point x="148" y="321" type="line"/>
      <point x="167" y="312" type="line"/>
      <point x="177" y="298" type="line"/>
      <point x="191" y="304" type="line"/>
      <point x="189" y="318" type="line"/>
      <point x="200" y="320" type="line"/>
      <point x="204" y="327" type="line"/>
      <point x="219" y="312" type="line"/>
      <point x="236" y="314" type="line"/>
      <point x="241" y="304" type="line"/>
      <point x="261" y="308" type="line"/>
      <point x="264" y="318" type="line"/>
      <point x="270" y="306" type="line"/>
      <point x="285" y="313" type="line"/>
      <point x="299" y="314" type="line"/>
      <point x="304" y="331" type="line"/>
      <point x="316" y="346" type="line"/>
      <point x="318" y="366" type="line"/>
      <point x="332" y="382" type="line"/>
      <point x="326" y="393" type="line"/>
      <point x="329" y="406" type="line"/>
      <point x="324" y="415" type="line"/>
      <point x="340" y="423" type="line"/>
      <point x="338" y="437" type="line"/>
    </contour>
  </outline>
</glyph>
<glyph name="colon" format="1">
  <advance width="240"/>
  <unicode hex="003A"/>
  <outline>
    <contour>
      <point x="182" y="382" type="line"/>
      <point x="178" y="379" type="line"/>
      <point x="174" y="355" type="line"/>
      <point x="159" y="355" type="line"/>
      <point x="153" y="337" type="line"/>
      <point x="143" y="342" type="line"/>
      <point x="117" y="340" type="line"/>
      <point x="110" y="332" type="line"/>
      <point x="89" y="341" type="line"/>
      <point x="76" y="343" type="line"/>
      <point x="64" y="354" type="line"/>
      <point x="66" y="361" type="line"/>
      <point x="60" y="376" type="line"/>
      <point x="68" y="397" type="line"/>
      <point x="64" y="414" type="line"/>
      <point x="68" y="424" type="line"/>
      <point x="82" y="443" type="line"/>
      <point x="90" y="442" type="line"/>
      <point x="103" y="451" type="line"/>
      <point x="115" y="443" type="line"/>
      <point x="129" y="451" type="line"/>
      <point x="149" y="451" type="line"/>
      <point x="156" y="437" type="line"/>
      <point x="167" y="432" type="line"/>
      <point x="176" y="412" type="line"/>
      <point x="171" y="398" type="line"/>
    </contour>
    <contour>
      <point x="184" y="75" type="line"/>
      <point x="181" y="62" type="line"/>
      <point x="175" y="57" type="line"/>
      <point x="173" y="28" type="line"/>
      <point x="176" y="24" type="line"/>
      <point x="170" y="7" type="line"/>
      <point x="158" y="0" type="line"/>
      <point x="156" y="-12" type="line"/>
      <point x="141" y="-5" type="line"/>
      <point x="116" y="-7" type="line"/>
      <point x="105" y="-16" type="line"/>
      <point x="90" y="-10" type="line"/>
      <point x="95" y="1" type="line"/>
      <point x="84" y="10" type="line"/>
      <point x="78" y="25" type="line"/>
      <point x="69" y="27" type="line"/>
      <point x="74" y="49" type="line"/>
      <point x="68" y="72" type="line"/>
      <point x="80" y="78" type="line"/>
      <point x="87" y="90" type="line"/>
      <point x="100" y="84" type="line"/>
      <point x="115" y="94" type="line"/>
      <point x="135" y="95" type="line"/>
      <point x="143" y="105" type="line"/>
      <point x="157" y="97" type="line"/>
      <point x="162" y="100" type="line"/>
      <point x="173" y="93" type="line"/>
    </contour>
  </outline>
</glyph>
<glyph name="semicolon" format="1">
  <advance width="240"/>
  <unicode hex="003B"/>
  <outline>
    <contour>
      <point x="168" y="393" type="line"/>
      <point x="160" y="389" type="line"/>
      <point x="164" y="371" type="line"/>
      <point x="153" y="355" type="line"/>
      <point x="142" y="354" type="line"/>
      <point x="125" y="340" type="line"/>
      <point x="124" y="329" type="line"/>
      <point x="101" y="332" type="line"/>
      <point x="84" y="326" type="line"/>
      <point x="72" y="335" type="line"/>
      <point x="69" y="349" type="line"/>
      <point x="57" y="360" type="line"/>
      <point x="61" y="379" type="line"/>
      <point x="53" y="393" type="line"/>
      <point x="59" y="409" type="line"/>
      <point x="70" y="418" type="line"/>
      <point x="72" y="440" type="line"/>
      <point x="77" y="449" type="line"/>
      <point x="91" y="446" type="line"/>
      <point x="87" y="439" type="line"/>
      <point x="99" y="431" type="line"/>
      <point x="115" y="439" type="line"/>
      <point x="130" y="433" type="line"/>
      <point x="142" y="439" type="line"/>
      <point x="145" y="425" type="line"/>
      <point x="160" y="419" type="line"/>
      <point x="161" y="403" type="line"/>
    </contour>
    <contour>
      <point x="189" y="12" type="line"/>
      <point x="174" y="-3" type="line"/>
      <point x="174" y="-13" type="line"/>
      <point x="165" y="-18" type="line"/>
      <point x="154" y="-37" type="line"/>
      <point x="158" y="-43" type="line"/>
      <point x="143" y="-53" type="line"/>
      <point x="136" y="-70" type="line"/>
      <point x="125" y="-69" type="line"/>
      <point x="113" y="-81" type="line"/>
      <point x="112" y="-94" type="line"/>
      <point x="101" y="-104" type="line"/>
      <point x="94" y="-96" type="line"/>
      <point x="76" y="-95" type="line"/>
      <point x="75" y="-83" type="line"/>
      <point x="61" y="-77" type="line"/>
      <point x="60" y="-60" type="line"/>
      <point x="50" y="-49" type="line"/>
      <point x="53" y="-29" type="line"/>
      <point x="63" y="-10" type="line"/>
      <point x="56" y="-1" type="line"/>
      <point x="63" y="12" type="line"/>
      <point x="65" y="34" type="line"/>
      <point x="59" y="39" type="line"/>
      <point x="61" y="58" type="line"/>
      <point x="72" y="67" type="line"/>
      <point x="83" y="91" type="line"/>
      <point x="79" y="100" type="line"/>
      <point x="89" y="105" type="line"/>
      <point x="102" y="103" type="line"/>
      <point x="107" y="113" type="line"/>
      <point x="121" y="114" type="line"/>
      <point x="127" y="105" type="line"/>
      <point x="144" y="107" type="line"/>
      <point x="159" y="97" type="line"/>
      <point x="171" y="98" type="line"/>
      <point x="171" y="80" type="line"/>
      <point x="185" y="70" type="line"/>
      <point x="189" y="54" type="line"/>
      <point x="181" y="41" type="line"/>
      <point x="179" y="25" type="line"/>
    </contour>
  </outline>
</glyph>
<glyph name="question" format="1">
  <advance width="471"/>
  <unicode hex="003F"/>
  <outline>
    <contour>
      <point x="427" y="524" type="line"/>
      <point x="420" y="509" type="line"/>
      <point x="407" y="502" type="line"/>
      <point x="397" y="488" type="line"/>
      <point x="399" y="472" type="line"/>
      <point x="390" y="467" type="line"/>
      <point x="384" y="455" type="line"/>
      <point x="395" y="447" type="line"/>
      <point x="384" y="438" type="line"/>
      <point x="378" y="424" type="line"/>
      <point x="364" y="422" type="line"/>
      <point x="364" y="409" type="line"/>
      <point x="346" y="401" type="line"/>
      <point x="333" y="380" type="line"/>
      <point x="317" y="375" type="line"/>
      <point x="312" y="362" type="line"/>
      <point x="317" y="355" type="line"/>
      <point x="301" y="352" type="line"/>
      <point x="288" y="336" type="line"/>
      <point x="285" y="325" type="line"/>
      <point x="273" y="321" type="line"/>
      <point x="270" y="308" type="line"/>
      <point x="254" y="300" type="line"/>
      <point x="247" y="281" type="line"/>
      <point x="236" y="271" type="line"/>
      <point x="237" y="256" type="line"/>
      <point x="226" y="240" type="line"/>
      <point x="227" y="231" type="line"/>
      <point x="217" y="220" type="line"/>
      <point x="206" y="227" type="line"/>
      <point x="199" y="219" type="line"/>
      <point x="184" y="217" type="line"/>
      <point x="175" y="201" type="line"/>
      <point x="177" y="183" type="line"/>
      <point x="173" y="171" type="line"/>
      <point x="163" y="171" type="line"/>
      <point x="153" y="157" type="line"/>
      <point x="144" y="166" type="line"/>
      <point x="146" y="188" type="line"/>
      <point x="153" y="211" type="line"/>
      <point x="146" y="232" type="line"/>
      <point x="151" y="248" type="line"/>
      <point x="170" y="263" type="line"/>
      <point x="170" y="268" type="line"/>
      <point x="187" y="271" type="line"/>
      <point x="187" y="283" type="line"/>
      <point x="205" y="296" type="line"/>
      <point x="207" y="308" type="line"/>
      <point x="214" y="305" type="line"/>
      <point x="222" y="326" type="line"/>
      <point x="243" y="339" type="line"/>
      <point x="259" y="363" type="line"/>
      <point x="259" y="375" type="line"/>
      <point x="263" y="373" type="line"/>
      <point x="278" y="394" type="line"/>
      <point x="292" y="401" type="line"/>
      <point x="301" y="419" type="line"/>
      <point x="300" y="441" type="line"/>
      <point x="289" y="452" type="line"/>
      <point x="293" y="464" type="line"/>
      <point x="288" y="471" type="line"/>
      <point x="301" y="485" type="line"/>
      <point x="295" y="498" type="line"/>
      <point x="301" y="501" type="line"/>
      <point x="295" y="519" type="line"/>
      <point x="301" y="532" type="line"/>
      <point x="285" y="542" type="line"/>
      <point x="291" y="548" type="line"/>
      <point x="277" y="568" type="line"/>
      <point x="256" y="572" type="line"/>
      <point x="259" y="586" type="line"/>
      <point x="252" y="599" type="line"/>
      <point x="240" y="602" type="line"/>
      <point x="234" y="612" type="line"/>
      <point x="217" y="622" type="line"/>
      <point x="207" y="618" type="line"/>
      <point x="184" y="625" type="line"/>
      <point x="162" y="615" type="line"/>
      <point x="151" y="618" type="line"/>
      <point x="146" y="608" type="line"/>
      <point x="126" y="602" type="line"/>
      <point x="115" y="605" type="line"/>
      <point x="118" y="616" type="line"/>
      <point x="105" y="624" type="line"/>
      <point x="103" y="640" type="line"/>
      <point x="124" y="652" type="line"/>
      <point x="126" y="658" type="line"/>
      <point x="141" y="654" type="line"/>
      <point x="156" y="662" type="line"/>
      <point x="171" y="657" type="line"/>
      <point x="200" y="663" type="line"/>
      <point x="210" y="671" type="line"/>
      <point x="234" y="668" type="line"/>
      <point x="240" y="658" type="line"/>
      <point x="259" y="663" type="line"/>
      <point x="268" y="656" type="line"/>
      <point x="279" y="669" type="line"/>
      <point x="295" y="665" type="line"/>
      <point x="307" y="649" type="line"/>
      <point x="320" y="645" type="line"/>
      <point x="320" y="640" type="line"/>
      <point x="335" y="630" type="line"/>
      <point x="348" y="630" type="line"/>
      <point x="359" y="619" type="line"/>
      <point x="375" y="618" type="line"/>
      <point x="373" y="611" type="line"/>
      <point x="386" y="587" type="line"/>
      <point x="397" y="581" type="line"/>
      <point x="391" y="568" type="line"/>
      <point x="398" y="544" type="line"/>
      <point x="412" y="530" type="line"/>
      <point x="421" y="534" type="line"/>
    </contour>
    <contour>
      <point x="86" y="608" type="line"/>
      <point x="78" y="603" type="line"/>
      <point x="69" y="604" type="line"/>
      <point x="60" y="587" type="line"/>
      <point x="52" y="581" type="line"/>
      <point x="45" y="587" type="line"/>
      <point x="48" y="604" type="line"/>
      <point x="59" y="613" type="line"/>
      <point x="75" y="614" type="line"/>
    </contour>
    <contour>
      <point x="199" y="21" type="line"/>
      <point x="190" y="7" type="line"/>
      <point x="195" y="-5" type="line"/>
      <point x="183" y="-18" type="line"/>
      <point x="168" y="-20" type="line"/>
      <point x="165" y="-32" type="line"/>
      <point x="156" y="-24" type="line"/>
      <point x="136" y="-18" type="line"/>
      <point x="126" y="-3" type="line"/>
      <point x="131" y="12" type="line"/>
      <point x="126" y="26" type="line"/>
      <point x="139" y="34" type="line"/>
      <point x="147" y="51" type="line"/>
      <point x="162" y="48" type="line"/>
      <point x="172" y="54" type="line"/>
      <point x="183" y="48" type="line"/>
      <point x="184" y="34" type="line"/>
      <point x="194" y="31" type="line"/>
    </contour>
    <contour>
      <point x="311" y="573" type="line"/>
      <point x="304" y="592" type="line"/>
      <point x="292" y="599" type="line"/>
      <point x="283" y="613" type="line"/>
      <point x="270" y="619" type="line"/>
      <point x="259" y="617" type="line"/>
      <point x="273" y="608" type="line"/>
      <point x="271" y="597" type="line"/>
      <point x="284" y="578" type="line"/>
      <point x="295" y="577" type="line"/>
      <point x="304" y="556" type="line"/>
    </contour>
  </outline>
</glyph>
<glyph name="at" format="1">
  <advance width="570"/>
  <unicode hex="0040"/>
  <outline>
    <contour>
      <point x="420" y="576" type="line"/>
      <point x="415" y="572" type="line"/>
      <point x="410" y="581" type="line"/>
      <point x="390" y="582" type="line"/>
      <point x="393" y="591" type="line"/>
      <point x="372" y="607" type="line"/>
      <point x="364" y="606" type="line"/>
      <point x="339" y="615" type="line"/>
      <point x="332" y="617" type="line"/>
      <point x="343" y="626" type="line"/>
      <point x="343" y="633" type="line"/>
      <point x="357" y="634" type="line"/>
      <point x="362" y="626" type="line"/>
      <point x="382" y="618" type="line"/>
      <point x="389" y="609" type="line"/>
      <point x="395" y="611" type="line"/>
      <point x="417" y="590" type="line"/>
      <point x="413" y="589" type="line"/>
    </contour>
    <contour>
      <point x="475" y="444" type="line"/>
      <point x="467" y="439" type="line"/>
      <point x="454" y="440" type="line"/>
      <point x="455" y="452" type="line"/>
      <point x="447" y="451" type="line"/>
      <point x="442" y="459" type="line"/>
      <point x="444" y="470" type="line"/>
      <point x="449" y="472" type="line"/>
      <point x="458" y="463" type="line"/>
      <point x="469" y="468" type="line"/>
      <point x="472" y="463" type="line"/>
      <point x="469" y="453" type="line"/>
    </contour>
    <contour>
      <point x="211" y="504" type="line"/>
      <point x="200" y="486" type="line"/>
      <point x="191" y="490" type="line"/>
      <point x="193" y="498" type="line"/>
      <point x="203" y="506" type="line"/>
    </contour>
    <contour>
      <point x="540" y="261" type="line"/>
      <point x="530" y="244" type="line"/>
      <point x="526" y="217" type="line"/>
      <point x="514" y="211" type="line"/>
      <point x="505" y="188" type="line"/>
      <point x="496" y="198" type="line"/>
      <point x="481" y="190" type="line"/>
      <point x="469" y="175" type="line"/>
      <point x="471" y="165" type="line"/>
      <point x="436" y="168" type="line"/>
      <point x="426" y="160" type="line"/>
      <point x="414" y="162" type="line"/>
      <point x="412" y="168" type="line"/>
      <point x="405" y="176" type="line"/>
      <point x="408" y="184" type="line"/>
      <point x="398" y="188" type="line"/>
      <point x="388" y="179" type="line"/>
      <point x="375" y="188" type="line"/>
      <point x="367" y="188" type="line"/>
      <point x="361" y="173" type="line"/>
      <point x="359" y="173" type="line"/>
      <point x="351" y="179" type="line"/>
      <point x="326" y="182" type="line"/>
      <point x="328" y="176" type="line"/>
      <point x="298" y="179" type="line"/>
      <point x="286" y="174" type="line"/>
      <point x="278" y="184" type="line"/>
      <point x="266" y="188" type="line"/>
      <point x="247" y="173" type="line"/>
      <point x="244" y="168" type="line"/>
      <point x="237" y="168" type="line"/>
      <point x="217" y="188" type="line"/>
      <point x="210" y="176" type="line"/>
      <point x="213" y="173" type="line"/>
      <point x="206" y="170" type="line"/>
      <point x="199" y="179" type="line"/>
      <point x="184" y="174" type="line"/>
      <point x="184" y="161" type="line"/>
      <point x="181" y="157" type="line"/>
      <point x="185" y="144" type="line"/>
      <point x="177" y="141" type="line"/>
      <point x="167" y="149" type="line"/>
      <point x="171" y="163" type="line"/>
      <point x="166" y="168" type="line"/>
      <point x="159" y="168" type="line"/>
      <point x="150" y="182" type="line"/>
      <point x="139" y="177" type="line"/>
      <point x="126" y="187" type="line"/>
      <point x="114" y="186" type="line"/>
      <point x="106" y="199" type="line"/>
      <point x="97" y="207" type="line"/>
      <point x="88" y="201" type="line"/>
      <point x="85" y="193" type="line"/>
      <point x="94" y="181" type="line"/>
      <point x="108" y="174" type="line"/>
      <point x="108" y="160" type="line"/>
      <point x="113" y="160" type="line"/>
      <point x="117" y="138" type="line"/>
      <point x="117" y="131" type="line"/>
      <point x="127" y="128" type="line"/>
      <point x="129" y="106" type="line"/>
      <point x="121" y="96" type="line"/>
      <point x="117" y="98" type="line"/>
      <point x="117" y="106" type="line"/>
      <point x="108" y="119" type="line"/>
      <point x="103" y="120" type="line"/>
      <point x="95" y="141" type="line"/>
      <point x="81" y="151" type="line"/>
      <point x="80" y="172" type="line"/>
      <point x="72" y="179" type="line"/>
      <point x="72" y="187" type="line"/>
      <point x="63" y="228" type="line"/>
      <point x="66" y="236" type="line"/>
      <point x="60" y="239" type="line"/>
      <point x="67" y="269" type="line"/>
      <point x="62" y="273" type="line"/>
      <point x="69" y="333" type="line"/>
      <point x="64" y="334" type="line"/>
      <point x="60" y="355" type="line"/>
      <point x="64" y="371" type="line"/>
      <point x="62" y="383" type="line"/>
      <point x="67" y="388" type="line"/>
      <point x="62" y="417" type="line"/>
      <point x="69" y="439" type="line"/>
      <point x="79" y="452" type="line"/>
      <point x="79" y="462" type="line"/>
      <point x="88" y="481" type="line"/>
      <point x="104" y="495" type="line"/>
      <point x="108" y="495" type="line"/>
      <point x="112" y="507" type="line"/>
      <point x="116" y="521" type="line"/>
      <point x="132" y="534" type="line"/>
      <point x="137" y="532" type="line"/>
      <point x="132" y="517" type="line"/>
      <point x="133" y="498" type="line"/>
      <point x="127" y="495" type="line"/>
      <point x="124" y="476" type="line"/>
      <point x="114" y="468" type="line"/>
      <point x="108" y="455" type="line"/>
      <point x="111" y="443" type="line"/>
      <point x="122" y="438" type="line"/>
      <point x="135" y="447" type="line"/>
      <point x="141" y="454" type="line"/>
      <point x="151" y="450" type="line"/>
      <point x="160" y="448" type="line"/>
      <point x="173" y="465" type="line"/>
      <point x="192" y="473" type="line"/>
      <point x="199" y="461" type="line"/>
      <point x="191" y="457" type="line"/>
      <point x="196" y="448" type="line"/>
      <point x="204" y="448" type="line"/>
      <point x="211" y="454" type="line"/>
      <point x="220" y="446" type="line"/>
      <point x="222" y="436" type="line"/>
      <point x="233" y="437" type="line"/>
      <point x="243" y="444" type="line"/>
      <point x="238" y="448" type="line"/>
      <point x="247" y="457" type="line"/>
      <point x="269" y="457" type="line"/>
      <point x="278" y="464" type="line"/>
      <point x="280" y="471" type="line"/>
      <point x="288" y="473" type="line"/>
      <point x="294" y="468" type="line"/>
      <point x="313" y="476" type="line"/>
      <point x="320" y="473" type="line"/>
      <point x="325" y="480" type="line"/>
      <point x="322" y="487" type="line"/>
      <point x="327" y="494" type="line"/>
      <point x="337" y="493" type="line"/>
      <point x="343" y="476" type="line"/>
      <point x="354" y="476" type="line"/>
      <point x="359" y="468" type="line"/>
      <point x="370" y="464" type="line"/>
      <point x="376" y="471" type="line"/>
      <point x="370" y="479" type="line"/>
      <point x="362" y="477" type="line"/>
      <point x="357" y="493" type="line"/>
      <point x="361" y="495" type="line"/>
      <point x="380" y="482" type="line"/>
      <point x="382" y="482" type="line"/>
      <point x="386" y="468" type="line"/>
      <point x="404" y="462" type="line"/>
      <point x="404" y="457" type="line"/>
      <point x="415" y="447" type="line"/>
      <point x="412" y="432" type="line"/>
      <point x="416" y="430" type="line"/>
      <point x="414" y="395" type="line"/>
      <point x="409" y="389" type="line"/>
      <point x="412" y="361" type="line"/>
      <point x="416" y="354" type="line"/>
      <point x="415" y="321" type="line"/>
      <point x="421" y="311" type="line"/>
      <point x="428" y="307" type="line"/>
      <point x="438" y="313" type="line"/>
      <point x="444" y="321" type="line"/>
      <point x="455" y="329" type="line"/>
      <point x="449" y="355" type="line"/>
      <point x="454" y="366" type="line"/>
      <point x="452" y="388" type="line"/>
      <point x="444" y="398" type="line"/>
      <point x="448" y="416" type="line"/>
      <point x="453" y="421" type="line"/>
      <point x="463" y="415" type="line"/>
      <point x="460" y="385" type="line"/>
      <point x="465" y="371" type="line"/>
      <point x="463" y="337" type="line"/>
      <point x="472" y="320" type="line"/>
      <point x="469" y="288" type="line"/>
      <point x="472" y="255" type="line"/>
      <point x="479" y="255" type="line"/>
      <point x="481" y="245" type="line"/>
      <point x="492" y="249" type="line"/>
      <point x="504" y="263" type="line"/>
      <point x="501" y="266" type="line"/>
      <point x="504" y="300" type="line"/>
      <point x="509" y="304" type="line"/>
      <point x="518" y="300" type="line"/>
      <point x="520" y="280" type="line"/>
      <point x="536" y="270" type="line"/>
    </contour>
    <contour>
      <point x="482" y="82" type="line"/>
      <point x="476" y="78" type="line"/>
      <point x="471" y="65" type="line"/>
      <point x="463" y="55" type="line"/>
      <point x="458" y="57" type="line"/>
      <point x="456" y="44" type="line"/>
      <point x="437" y="31" type="line"/>
      <point x="436" y="23" type="line"/>
      <point x="417" y="16" type="line"/>
      <point x="406" y="16" type="line"/>
      <point x="404" y="7" type="line"/>
      <point x="387" y="-10" type="line"/>
      <point x="381" y="-6" type="line"/>
      <point x="387" y="10" type="line"/>
      <point x="384" y="17" type="line"/>
      <point x="398" y="18" type="line"/>
      <point x="421" y="33" type="line"/>
      <point x="426" y="34" type="line"/>
      <point x="433" y="51" type="line"/>
      <point x="443" y="65" type="line"/>
      <point x="452" y="65" type="line"/>
      <point x="468" y="71" type="line"/>
      <point x="465" y="75" type="line"/>
      <point x="479" y="98" type="line"/>
    </contour>
    <contour>
      <point x="49" y="276" type="line"/>
      <point x="40" y="269" type="line"/>
      <point x="36" y="285" type="line"/>
      <point x="38" y="307" type="line"/>
      <point x="39" y="333" type="line"/>
      <point x="46" y="342" type="line"/>
      <point x="45" y="329" type="line"/>
      <point x="48" y="314" type="line"/>
      <point x="49" y="288" type="line"/>
      <point x="45" y="283" type="line"/>
    </contour>
    <contour>
      <point x="367" y="420" type="line"/>
      <point x="367" y="426" type="line"/>
      <point x="361" y="431" type="line"/>
      <point x="348" y="431" type="line"/>
      <point x="348" y="438" type="line"/>
      <point x="337" y="438" type="line"/>
      <point x="337" y="429" type="line"/>
      <point x="342" y="429" type="line"/>
      <point x="359" y="415" type="line"/>
      <point x="361" y="415" type="line"/>
    </contour>
    <contour>
      <point x="368" y="356" type="line"/>
      <point x="359" y="360" type="line"/>
      <point x="361" y="366" type="line"/>
      <point x="367" y="375" type="line"/>
      <point x="362" y="385" type="line"/>
      <point x="350" y="389" type="line"/>
      <point x="348" y="399" type="line"/>
      <point x="337" y="386" type="line"/>
      <point x="329" y="362" type="line"/>
      <point x="327" y="375" type="line"/>
      <point x="318" y="383" type="line"/>
      <point x="322" y="398" type="line"/>
      <point x="314" y="413" type="line"/>
      <point x="311" y="431" type="line"/>
      <point x="293" y="441" type="line"/>
      <point x="282" y="439" type="line"/>
      <point x="272" y="431" type="line"/>
      <point x="262" y="430" type="line"/>
      <point x="256" y="438" type="line"/>
      <point x="249" y="429" type="line"/>
      <point x="248" y="419" type="line"/>
      <point x="231" y="408" type="line"/>
      <point x="222" y="419" type="line"/>
      <point x="215" y="411" type="line"/>
      <point x="206" y="413" type="line"/>
      <point x="207" y="389" type="line"/>
      <point x="202" y="388" type="line"/>
      <point x="200" y="375" type="line"/>
      <point x="191" y="366" type="line"/>
      <point x="185" y="332" type="line"/>
      <point x="193" y="327" type="line"/>
      <point x="198" y="308" type="line"/>
      <point x="204" y="308" type="line"/>
      <point x="203" y="296" type="line"/>
      <point x="193" y="288" type="line"/>
      <point x="193" y="280" type="line"/>
      <point x="199" y="275" type="line"/>
      <point x="213" y="277" type="line"/>
      <point x="223" y="294" type="line"/>
      <point x="223" y="300" type="line"/>
      <point x="232" y="304" type="line"/>
      <point x="236" y="313" type="line"/>
      <point x="246" y="310" type="line"/>
      <point x="249" y="302" type="line"/>
      <point x="242" y="288" type="line"/>
      <point x="245" y="280" type="line"/>
      <point x="250" y="281" type="line"/>
      <point x="253" y="264" type="line"/>
      <point x="260" y="259" type="line"/>
      <point x="261" y="245" type="line"/>
      <point x="271" y="248" type="line"/>
      <point x="282" y="273" type="line"/>
      <point x="289" y="280" type="line"/>
      <point x="299" y="292" type="line"/>
      <point x="303" y="281" type="line"/>
      <point x="312" y="272" type="line"/>
      <point x="318" y="275" type="line"/>
      <point x="322" y="284" type="line"/>
      <point x="332" y="293" type="line"/>
      <point x="326" y="302" type="line"/>
      <point x="333" y="311" type="line"/>
      <point x="328" y="329" type="line"/>
      <point x="338" y="334" type="line"/>
      <point x="353" y="329" type="line"/>
      <point x="364" y="338" type="line"/>
      <point x="362" y="347" type="line"/>
    </contour>
    <contour>
      <point x="299" y="413" type="line"/>
      <point x="294" y="406" type="line"/>
      <point x="286" y="408" type="line"/>
      <point x="279" y="402" type="line"/>
      <point x="272" y="400" type="line"/>
      <point x="269" y="408" type="line"/>
      <point x="279" y="411" type="line"/>
      <point x="286" y="421" type="line"/>
      <point x="294" y="420" type="line"/>
    </contour>
  </outline>
</glyph>
<glyph name="C" format="1">
  <advance width="450"/>
  <unicode hex="0043"/>
  <outline>
    <contour>
      <point x="402" y="12" type="line"/>
      <point x="394" y="-11" type="line"/>
      <point x="378" y="-27" type="line"/>
      <point x="363" y="-22" type="line"/>
      <point x="338" y="-27" type="line"/>
      <point x="311" y="-23" type="line"/>
      <point x="308" y="-15" type="line"/>
      <point x="296" y="-15" type="line"/>
      <point x="292" y="-6" type="line"/>
      <point x="284" y="-12" type="line"/>
      <point x="290" y="-23" type="line"/>
      <point x="275" y="-29" type="line"/>
      <point x="256" y="-18" type="line"/>
      <point x="247" y="-4" type="line"/>
      <point x="235" y="-4" type="line"/>
      <point x="221" y="14" type="line"/>
      <point x="192" y="22" type="line"/>
      <point x="199" y="30" type="line"/>
      <point x="194" y="40" type="line"/>
      <point x="168" y="55" type="line"/>
      <point x="163" y="48" type="line"/>
      <point x="155" y="70" type="line"/>
      <point x="139" y="81" type="line"/>
      <point x="125" y="79" type="line"/>
      <point x="121" y="103" type="line"/>
      <point x="104" y="116" type="line"/>
      <point x="100" y="147" type="line"/>
      <point x="90" y="170" type="line"/>
      <point x="83" y="173" type="line"/>
      <point x="78" y="198" type="line"/>
      <point x="69" y="204" type="line"/>
      <point x="71" y="209" type="line"/>
      <point x="56" y="222" type="line"/>
      <point x="47" y="242" type="line"/>
      <point x="52" y="246" type="line"/>
      <point x="43" y="286" type="line"/>
      <point x="50" y="292" type="line"/>
      <point x="49" y="307" type="line"/>
      <point x="38" y="312" type="line"/>
      <point x="48" y="336" type="line"/>
      <point x="47" y="369" type="line"/>
      <point x="54" y="376" type="line"/>
      <point x="47" y="382" type="line"/>
      <point x="58" y="409" type="line"/>
      <point x="71" y="426" type="line"/>
      <point x="69" y="437" type="line"/>
      <point x="80" y="467" type="line"/>
      <point x="87" y="464" type="line"/>
      <point x="90" y="486" type="line"/>
      <point x="99" y="508" type="line"/>
      <point x="111" y="522" type="line"/>
      <point x="114" y="546" type="line"/>
      <point x="132" y="567" type="line"/>
      <point x="160" y="582" type="line"/>
      <point x="171" y="595" type="line"/>
      <point x="193" y="608" type="line"/>
      <point x="201" y="624" type="line"/>
      <point x="229" y="634" type="line"/>
      <point x="239" y="644" type="line"/>
      <point x="247" y="646" type="line"/>
      <point x="253" y="659" type="line"/>
      <point x="277" y="664" type="line"/>
      <point x="279" y="670" type="line"/>
      <point x="308" y="662" type="line"/>
      <point x="347" y="662" type="line"/>
      <point x="368" y="667" type="line"/>
      <point x="382" y="662" type="line"/>
      <point x="399" y="664" type="line"/>
      <point x="391" y="644" type="line"/>
      <point x="390" y="629" type="line"/>
      <point x="396" y="622" type="line"/>
      <point x="384" y="622" type="line"/>
      <point x="375" y="631" type="line"/>
      <point x="346" y="629" type="line"/>
      <point x="320" y="619" type="line"/>
      <point x="320" y="613" type="line"/>
      <point x="305" y="608" type="line"/>
      <point x="289" y="597" type="line"/>
      <point x="299" y="590" type="line"/>
      <point x="275" y="577" type="line"/>
      <point x="275" y="586" type="line"/>
      <point x="257" y="588" type="line"/>
      <point x="272" y="594" type="line"/>
      <point x="280" y="606" type="line"/>
      <point x="279" y="611" type="line"/>
      <point x="295" y="620" type="line"/>
      <point x="295" y="629" type="line"/>
      <point x="279" y="626" type="line"/>
      <point x="259" y="610" type="line"/>
      <point x="251" y="608" type="line"/>
      <point x="241" y="589" type="line"/>
      <point x="221" y="579" type="line"/>
      <point x="208" y="562" type="line"/>
      <point x="214" y="555" type="line"/>
      <point x="211" y="541" type="line"/>
      <point x="226" y="543" type="line"/>
      <point x="242" y="562" type="line"/>
      <point x="244" y="555" type="line"/>
      <point x="232" y="534" type="line"/>
      <point x="217" y="522" type="line"/>
      <point x="221" y="519" type="line"/>
      <point x="208" y="511" type="line"/>
      <point x="200" y="492" type="line"/>
      <point x="184" y="474" type="line"/>
      <point x="178" y="440" type="line"/>
      <point x="182" y="428" type="line"/>
      <point x="170" y="404" type="line"/>
      <point x="168" y="382" type="line"/>
      <point x="173" y="377" type="line"/>
      <point x="163" y="356" type="line"/>
      <point x="170" y="348" type="line"/>
      <point x="168" y="325" type="line"/>
      <point x="161" y="311" type="line"/>
      <point x="171" y="280" type="line"/>
      <point x="163" y="269" type="line"/>
      <point x="172" y="244" type="line"/>
      <point x="178" y="210" type="line"/>
      <point x="175" y="189" type="line"/>
      <point x="180" y="173" type="line"/>
      <point x="192" y="164" type="line"/>
      <point x="188" y="162" type="line"/>
      <point x="197" y="143" type="line"/>
      <point x="213" y="137" type="line"/>
      <point x="217" y="124" type="line"/>
      <point x="224" y="117" type="line"/>
      <point x="206" y="109" type="line"/>
      <point x="206" y="94" type="line"/>
      <point x="216" y="73" type="line"/>
      <point x="232" y="63" type="line"/>
      <point x="235" y="68" type="line"/>
      <point x="249" y="52" type="line"/>
      <point x="257" y="61" type="line"/>
      <point x="286" y="63" type="line"/>
      <point x="292" y="68" type="line"/>
      <point x="301" y="55" type="line"/>
      <point x="287" y="53" type="line"/>
      <point x="272" y="41" type="line"/>
      <point x="253" y="37" type="line"/>
      <point x="261" y="27" type="line"/>
      <point x="272" y="26" type="line"/>
      <point x="284" y="12" type="line"/>
      <point x="300" y="16" type="line"/>
      <point x="290" y="24" type="line"/>
      <point x="287" y="33" type="line"/>
      <point x="301" y="36" type="line"/>
      <point x="320" y="30" type="line"/>
      <point x="323" y="15" type="line"/>
      <point x="344" y="18" type="line"/>
      <point x="370" y="13" type="line"/>
      <point x="389" y="21" type="line"/>
      <point x="396" y="10" type="line"/>
    </contour>
    <contour>
      <point x="152" y="353" type="line"/>
      <point x="145" y="370" type="line"/>
      <point x="147" y="375" type="line"/>
      <point x="141" y="386" type="line"/>
      <point x="133" y="362" type="line"/>
      <point x="139" y="344" type="line"/>
      <point x="129" y="327" type="line"/>
      <point x="136" y="321" type="line"/>
      <point x="141" y="295" type="line"/>
      <point x="133" y="290" type="line"/>
      <point x="143" y="279" type="line"/>
      <point x="150" y="295" type="line"/>
      <point x="150" y="315" type="line"/>
      <point x="145" y="322" type="line"/>
    </contour>
    <contour>
      <point x="85" y="361" type="line"/>
      <point x="80" y="359" type="line"/>
      <point x="83" y="376" type="line"/>
      <point x="80" y="386" type="line"/>
      <point x="75" y="374" type="line"/>
      <point x="69" y="379" type="line"/>
      <point x="63" y="360" type="line"/>
      <point x="71" y="358" type="line"/>
      <point x="66" y="346" type="line"/>
      <point x="71" y="329" type="line"/>
      <point x="81" y="336" type="line"/>
    </contour>
    <contour>
      <point x="83" y="280" type="line"/>
      <point x="78" y="298" type="line"/>
      <point x="79" y="316" type="line"/>
      <point x="72" y="318" type="line"/>
      <point x="65" y="310" type="line"/>
      <point x="64" y="293" type="line"/>
      <point x="73" y="287" type="line"/>
      <point x="67" y="285" type="line"/>
      <point x="68" y="271" type="line"/>
      <point x="75" y="267" type="line"/>
    </contour>
  </outline>
</glyph>
<glyph name="D" format="1">
  <advance width="570"/>
  <unicode hex="0044"/>
  <outline>
    <contour>
      <point x="536" y="276" type="line"/>
      <point x="534" y="260" type="line"/>
      <point x="526" y="256" type="line"/>
      <point x="523" y="243" type="line"/>
      <point x="527" y="244" type="line"/>
      <point x="521" y="234" type="line"/>
      <point x="521" y="222" type="line"/>
      <point x="517" y="227" type="line"/>
      <point x="509" y="224" type="line"/>
      <point x="519" y="249" type="line"/>
      <point x="519" y="276" type="line"/>
      <point x="514" y="280" type="line"/>
      <point x="521" y="285" type="line"/>
      <point x="519" y="325" type="line"/>
      <point x="514" y="327" type="line"/>
      <point x="521" y="341" type="line"/>
      <point x="521" y="352" type="line"/>
      <point x="517" y="356" type="line"/>
      <point x="515" y="369" type="line"/>
      <point x="519" y="374" type="line"/>
      <point x="521" y="391" type="line"/>
      <point x="514" y="410" type="line"/>
      <point x="518" y="415" type="line"/>
      <point x="509" y="425" type="line"/>
      <point x="512" y="432" type="line"/>
      <point x="523" y="425" type="line"/>
      <point x="525" y="417" type="line"/>
      <point x="523" y="398" type="line"/>
      <point x="532" y="382" type="line"/>
      <point x="536" y="386" type="line"/>
      <point x="536" y="359" type="line"/>
      <point x="532" y="331" type="line"/>
      <point x="536" y="327" type="line"/>
      <point x="535" y="315" type="line"/>
      <point x="530" y="312" type="line"/>
      <point x="534" y="291" type="line"/>
      <point x="530" y="285" type="line"/>
    </contour>
    <contour>
      <point x="502" y="355" type="line"/>
      <point x="497" y="343" type="line"/>
      <point x="500" y="310" type="line"/>
      <point x="495" y="300" type="line"/>
      <point x="500" y="294" type="line"/>
      <point x="492" y="268" type="line"/>
      <point x="500" y="255" type="line"/>
      <point x="493" y="246" type="line"/>
      <point x="492" y="227" type="line"/>
      <point x="497" y="224" type="line"/>
      <point x="494" y="186" type="line"/>
      <point x="485" y="167" type="line"/>
      <point x="488" y="164" type="line"/>
      <point x="480" y="148" type="line"/>
      <point x="482" y="128" type="line"/>
      <point x="467" y="113" type="line"/>
      <point x="469" y="109" type="line"/>
      <point x="453" y="92" type="line"/>
      <point x="445" y="72" type="line"/>
      <point x="433" y="79" type="line"/>
      <point x="419" y="70" type="line"/>
      <point x="406" y="49" type="line"/>
      <point x="409" y="42" type="line"/>
      <point x="391" y="31" type="line"/>
      <point x="389" y="19" type="line"/>
      <point x="381" y="22" type="line"/>
      <point x="369" y="10" type="line"/>
      <point x="348" y="9" type="line"/>
      <point x="348" y="3" type="line"/>
      <point x="328" y="-2" type="line"/>
      <point x="324" y="-8" type="line"/>
      <point x="302" y="6" type="line"/>
      <point x="284" y="3" type="line"/>
      <point x="279" y="-8" type="line"/>
      <point x="257" y="-8" type="line"/>
      <point x="256" y="-4" type="line"/>
      <point x="232" y="-8" type="line"/>
      <point x="203" y="-6" type="line"/>
      <point x="192" y="-12" type="line"/>
      <point x="163" y="-6" type="line"/>
      <point x="143" y="-11" type="line"/>
      <point x="145" y="-6" type="line"/>
      <point x="120" y="-6" type="line"/>
      <point x="105" y="3" type="line"/>
      <point x="105" y="10" type="line"/>
      <point x="94" y="15" type="line"/>
      <point x="102" y="34" type="line"/>
      <point x="100" y="49" type="line"/>
      <point x="90" y="55" type="line"/>
      <point x="88" y="67" type="line"/>
      <point x="71" y="68" type="line"/>
      <point x="61" y="76" type="line"/>
      <point x="66" y="83" type="line"/>
      <point x="60" y="122" type="line"/>
      <point x="64" y="164" type="line"/>
      <point x="60" y="169" type="line"/>
      <point x="60" y="209" type="line"/>
      <point x="65" y="224" type="line"/>
      <point x="60" y="246" type="line"/>
      <point x="66" y="267" type="line"/>
      <point x="63" y="274" type="line"/>
      <point x="63" y="300" type="line"/>
      <point x="67" y="322" type="line"/>
      <point x="61" y="377" type="line"/>
      <point x="66" y="384" type="line"/>
      <point x="61" y="430" type="line"/>
      <point x="60" y="462" type="line"/>
      <point x="67" y="500" type="line"/>
      <point x="60" y="508" type="line"/>
      <point x="66" y="531" type="line"/>
      <point x="63" y="555" type="line"/>
      <point x="64" y="577" type="line"/>
      <point x="69" y="584" type="line"/>
      <point x="72" y="573" type="line"/>
      <point x="86" y="579" type="line"/>
      <point x="87" y="587" type="line"/>
      <point x="96" y="596" type="line"/>
      <point x="90" y="622" type="line"/>
      <point x="105" y="629" type="line"/>
      <point x="114" y="649" type="line"/>
      <point x="135" y="657" type="line"/>
      <point x="150" y="650" type="line"/>
      <point x="155" y="655" type="line"/>
      <point x="174" y="653" type="line"/>
      <point x="182" y="670" type="line"/>
      <point x="188" y="674" type="line"/>
      <point x="188" y="664" type="line"/>
      <point x="204" y="656" type="line"/>
      <point x="212" y="646" type="line"/>
      <point x="239" y="643" type="line"/>
      <point x="247" y="647" type="line"/>
      <point x="276" y="648" type="line"/>
      <point x="294" y="643" type="line"/>
      <point x="322" y="642" type="line"/>
      <point x="326" y="646" type="line"/>
      <point x="345" y="646" type="line"/>
      <point x="367" y="631" type="line"/>
      <point x="369" y="619" type="line"/>
      <point x="388" y="617" type="line"/>
      <point x="400" y="602" type="line"/>
      <point x="429" y="586" type="line"/>
      <point x="428" y="581" type="line"/>
      <point x="450" y="576" type="line"/>
      <point x="458" y="562" type="line"/>
      <point x="469" y="557" type="line"/>
      <point x="469" y="531" type="line"/>
      <point x="478" y="528" type="line"/>
      <point x="486" y="501" type="line"/>
      <point x="485" y="488" type="line"/>
      <point x="497" y="473" type="line"/>
      <point x="488" y="465" type="line"/>
      <point x="485" y="450" type="line"/>
      <point x="493" y="436" type="line"/>
      <point x="485" y="425" type="line"/>
      <point x="497" y="419" type="line"/>
      <point x="497" y="398" type="line"/>
      <point x="502" y="387" type="line"/>
      <point x="493" y="374" type="line"/>
    </contour>
    <contour>
      <point x="454" y="303" type="line"/>
      <point x="445" y="325" type="line"/>
      <point x="454" y="336" type="line"/>
      <point x="450" y="349" type="line"/>
      <point x="454" y="360" type="line"/>
      <point x="447" y="367" type="line"/>
      <point x="445" y="383" type="line"/>
      <point x="438" y="388" type="line"/>
      <point x="445" y="407" type="line"/>
      <point x="436" y="412" type="line"/>
      <point x="431" y="421" type="line"/>
      <point x="433" y="432" type="line"/>
      <point x="421" y="436" type="line"/>
      <point x="415" y="428" type="line"/>
      <point x="427" y="409" type="line"/>
      <point x="427" y="388" type="line"/>
      <point x="435" y="375" type="line"/>
      <point x="429" y="367" type="line"/>
      <point x="427" y="345" type="line"/>
      <point x="434" y="329" type="line"/>
      <point x="430" y="312" type="line"/>
      <point x="436" y="303" type="line"/>
      <point x="427" y="291" type="line"/>
      <point x="424" y="276" type="line"/>
      <point x="429" y="258" type="line"/>
      <point x="424" y="243" type="line"/>
      <point x="430" y="237" type="line"/>
      <point x="430" y="222" type="line"/>
      <point x="438" y="233" type="line"/>
      <point x="439" y="250" type="line"/>
      <point x="445" y="252" type="line"/>
      <point x="445" y="265" type="line"/>
      <point x="438" y="280" type="line"/>
      <point x="445" y="280" type="line"/>
      <point x="445" y="294" type="line"/>
    </contour>
    <contour>
      <point x="417" y="345" type="line"/>
      <point x="412" y="352" type="line"/>
      <point x="417" y="382" type="line"/>
      <point x="409" y="391" type="line"/>
      <point x="414" y="418" type="line"/>
      <point x="408" y="424" type="line"/>
      <point x="406" y="450" type="line"/>
      <point x="399" y="456" type="line"/>
      <point x="400" y="473" type="line"/>
      <point x="387" y="492" type="line"/>
      <point x="387" y="510" type="line"/>
      <point x="382" y="517" type="line"/>
      <point x="387" y="534" type="line"/>
      <point x="383" y="551" type="line"/>
      <point x="369" y="564" type="line"/>
      <point x="361" y="562" type="line"/>
      <point x="349" y="567" type="line"/>
      <point x="334" y="557" type="line"/>
      <point x="318" y="556" type="line"/>
      <point x="312" y="567" type="line"/>
      <point x="299" y="575" type="line"/>
      <point x="308" y="583" type="line"/>
      <point x="289" y="592" type="line"/>
      <point x="284" y="604" type="line"/>
      <point x="271" y="603" type="line"/>
      <point x="269" y="610" type="line"/>
      <point x="250" y="606" type="line"/>
      <point x="246" y="595" type="line"/>
      <point x="235" y="588" type="line"/>
      <point x="223" y="595" type="line"/>
      <point x="233" y="602" type="line"/>
      <point x="233" y="610" type="line"/>
      <point x="216" y="613" type="line"/>
      <point x="210" y="606" type="line"/>
      <point x="209" y="585" type="line"/>
      <point x="215" y="571" type="line"/>
      <point x="200" y="564" type="line"/>
      <point x="188" y="541" type="line"/>
      <point x="193" y="538" type="line"/>
      <point x="189" y="519" type="line"/>
      <point x="190" y="501" type="line"/>
      <point x="181" y="492" type="line"/>
      <point x="181" y="458" type="line"/>
      <point x="190" y="446" type="line"/>
      <point x="181" y="436" type="line"/>
      <point x="190" y="412" type="line"/>
      <point x="181" y="407" type="line"/>
      <point x="186" y="383" type="line"/>
      <point x="184" y="358" type="line"/>
      <point x="189" y="355" type="line"/>
      <point x="181" y="331" type="line"/>
      <point x="184" y="310" type="line"/>
      <point x="181" y="300" type="line"/>
      <point x="187" y="290" type="line"/>
      <point x="185" y="256" type="line"/>
      <point x="178" y="237" type="line"/>
      <point x="184" y="224" type="line"/>
      <point x="179" y="209" type="line"/>
      <point x="187" y="193" type="line"/>
      <point x="193" y="193" type="line"/>
      <point x="183" y="186" type="line"/>
      <point x="185" y="165" type="line"/>
      <point x="179" y="155" type="line"/>
      <point x="188" y="146" type="line"/>
      <point x="187" y="137" type="line"/>
      <point x="193" y="128" type="line"/>
      <point x="188" y="109" type="line"/>
      <point x="193" y="100" type="line"/>
      <point x="188" y="97" type="line"/>
      <point x="204" y="83" type="line"/>
      <point x="226" y="88" type="line"/>
      <point x="233" y="82" type="line"/>
      <point x="239" y="85" type="line"/>
      <point x="255" y="77" type="line"/>
      <point x="256" y="67" type="line"/>
      <point x="240" y="67" type="line"/>
      <point x="233" y="58" type="line"/>
      <point x="215" y="57" type="line"/>
      <point x="205" y="52" type="line"/>
      <point x="213" y="44" type="line"/>
      <point x="230" y="41" type="line"/>
      <point x="251" y="44" type="line"/>
      <point x="257" y="50" type="line"/>
      <point x="276" y="50" type="line"/>
      <point x="288" y="63" type="line"/>
      <point x="281" y="68" type="line"/>
      <point x="286" y="77" type="line"/>
      <point x="304" y="83" type="line"/>
      <point x="306" y="91" type="line"/>
      <point x="323" y="90" type="line"/>
      <point x="342" y="103" type="line"/>
      <point x="363" y="109" type="line"/>
      <point x="371" y="125" type="line"/>
      <point x="384" y="139" type="line"/>
      <point x="378" y="143" type="line"/>
      <point x="382" y="158" type="line"/>
      <point x="397" y="168" type="line"/>
      <point x="406" y="184" type="line"/>
      <point x="402" y="198" type="line"/>
      <point x="410" y="209" type="line"/>
      <point x="406" y="215" type="line"/>
      <point x="406" y="237" type="line"/>
      <point x="412" y="260" type="line"/>
      <point x="407" y="274" type="line"/>
      <point x="415" y="291" type="line"/>
      <point x="412" y="327" type="line"/>
    </contour>
    <contour>
      <point x="170" y="467" type="line"/>
      <point x="164" y="480" type="line"/>
      <point x="163" y="495" type="line"/>
      <point x="157" y="497" type="line"/>
      <point x="159" y="508" type="line"/>
      <point x="149" y="511" type="line"/>
      <point x="143" y="502" type="line"/>
      <point x="147" y="485" type="line"/>
      <point x="141" y="473" type="line"/>
      <point x="149" y="459" type="line"/>
      <point x="144" y="455" type="line"/>
      <point x="148" y="434" type="line"/>
      <point x="141" y="417" type="line"/>
      <point x="148" y="410" type="line"/>
      <point x="150" y="376" type="line"/>
      <point x="144" y="362" type="line"/>
      <point x="143" y="345" type="line"/>
      <point x="149" y="341" type="line"/>
      <point x="141" y="331" type="line"/>
      <point x="145" y="311" type="line"/>
      <point x="140" y="287" type="line"/>
      <point x="148" y="277" type="line"/>
      <point x="141" y="267" type="line"/>
      <point x="148" y="253" type="line"/>
      <point x="144" y="234" type="line"/>
      <point x="148" y="218" type="line"/>
      <point x="141" y="204" type="line"/>
      <point x="148" y="198" type="line"/>
      <point x="150" y="181" type="line"/>
      <point x="145" y="171" type="line"/>
      <point x="147" y="155" type="line"/>
      <point x="157" y="147" type="line"/>
      <point x="166" y="158" type="line"/>
      <point x="160" y="184" type="line"/>
      <point x="163" y="203" type="line"/>
      <point x="159" y="222" type="line"/>
      <point x="162" y="231" type="line"/>
      <point x="159" y="260" type="line"/>
      <point x="163" y="268" type="line"/>
      <point x="160" y="295" type="line"/>
      <point x="163" y="315" type="line"/>
      <point x="157" y="319" type="line"/>
      <point x="162" y="344" type="line"/>
      <point x="159" y="367" type="line"/>
      <point x="167" y="374" type="line"/>
      <point x="159" y="388" type="line"/>
      <point x="164" y="395" type="line"/>
      <point x="159" y="412" type="line"/>
      <point x="164" y="428" type="line"/>
      <point x="162" y="455" type="line"/>
    </contour>
    <contour>
      <point x="100" y="112" type="line"/>
      <point x="96" y="115" type="line"/>
      <point x="95" y="137" type="line"/>
      <point x="87" y="146" type="line"/>
      <point x="94" y="164" type="line"/>
      <point x="91" y="171" type="line"/>
      <point x="95" y="202" type="line"/>
      <point x="90" y="219" type="line"/>
      <point x="98" y="231" type="line"/>
      <point x="98" y="255" type="line"/>
      <point x="92" y="274" type="line"/>
      <point x="96" y="290" type="line"/>
      <point x="90" y="307" type="line"/>
      <point x="95" y="309" type="line"/>
      <point x="98" y="322" type="line"/>
      <point x="94" y="334" type="line"/>
      <point x="96" y="352" type="line"/>
      <point x="90" y="357" type="line"/>
      <point x="93" y="374" type="line"/>
      <point x="98" y="386" type="line"/>
      <point x="90" y="389" type="line"/>
      <point x="91" y="404" type="line"/>
      <point x="96" y="410" type="line"/>
      <point x="87" y="432" type="line"/>
      <point x="94" y="436" type="line"/>
      <point x="94" y="452" type="line"/>
      <point x="87" y="458" type="line"/>
      <point x="94" y="468" type="line"/>
      <point x="98" y="467" type="line"/>
      <point x="92" y="488" type="line"/>
      <point x="98" y="508" type="line"/>
      <point x="94" y="510" type="line"/>
      <point x="90" y="528" type="line"/>
      <point x="96" y="543" type="line"/>
      <point x="87" y="562" type="line"/>
      <point x="81" y="564" type="line"/>
      <point x="74" y="549" type="line"/>
      <point x="81" y="528" type="line"/>
      <point x="75" y="511" type="line"/>
      <point x="74" y="488" type="line"/>
      <point x="78" y="480" type="line"/>
      <point x="75" y="454" type="line"/>
      <point x="79" y="450" type="line"/>
      <point x="72" y="428" type="line"/>
      <point x="78" y="415" type="line"/>
      <point x="74" y="396" type="line"/>
      <point x="81" y="376" type="line"/>
      <point x="74" y="367" type="line"/>
      <point x="72" y="354" type="line"/>
      <point x="81" y="352" type="line"/>
      <point x="78" y="332" type="line"/>
      <point x="84" y="317" type="line"/>
      <point x="81" y="285" type="line"/>
      <point x="74" y="276" type="line"/>
      <point x="79" y="255" type="line"/>
      <point x="74" y="236" type="line"/>
      <point x="78" y="224" type="line"/>
      <point x="74" y="204" type="line"/>
      <point x="80" y="201" type="line"/>
      <point x="77" y="181" type="line"/>
      <point x="78" y="144" type="line"/>
      <point x="82" y="133" type="line"/>
      <point x="77" y="110" type="line"/>
      <point x="83" y="100" type="line"/>
      <point x="79" y="90" type="line"/>
      <point x="87" y="85" type="line"/>
      <point x="98" y="94" type="line"/>
    </contour>
  </outline>
</glyph>
<glyph name="G" format="1">
  <advance width="510"/>
  <unicode hex="0047"/>
  <outline>
    <contour>
      <point x="479" y="176" type="line"/>
      <point x="472" y="158" type="line"/>
      <point x="464" y="173" type="line"/>
      <point x="462" y="188" type="line"/>
      <point x="468" y="186" type="line"/>
      <point x="467" y="195" type="line"/>
      <point x="474" y="215" type="line"/>
      <point x="479" y="203" type="line"/>
      <point x="476" y="191" type="line"/>
    </contour>
    <contour>
      <point x="480" y="113" type="line"/>
      <point x="479" y="86" type="line"/>
      <point x="474" y="75" type="line"/>
      <point x="468" y="83" type="line"/>
      <point x="470" y="86" type="line"/>
      <point x="464" y="92" type="line"/>
      <point x="471" y="107" type="line"/>
      <point x="468" y="131" type="line"/>
      <point x="475" y="115" type="line"/>
    </contour>
    <contour>
      <point x="450" y="235" type="line"/>
      <point x="444" y="216" type="line"/>
      <point x="443" y="184" type="line"/>
      <point x="449" y="164" type="line"/>
      <point x="444" y="141" type="line"/>
      <point x="449" y="131" type="line"/>
      <point x="444" y="101" type="line"/>
      <point x="449" y="98" type="line"/>
      <point x="442" y="78" type="line"/>
      <point x="449" y="64" type="line"/>
      <point x="448" y="41" type="line"/>
      <point x="440" y="26" type="line"/>
      <point x="444" y="24" type="line"/>
      <point x="435" y="16" type="line"/>
      <point x="423" y="-16" type="line"/>
      <point x="408" y="-15" type="line"/>
      <point x="399" y="-25" type="line"/>
      <point x="375" y="-30" type="line"/>
      <point x="360" y="-27" type="line"/>
      <point x="342" y="-31" type="line"/>
      <point x="306" y="-19" type="line"/>
      <point x="303" y="-24" type="line"/>
      <point x="291" y="-24" type="line"/>
      <point x="281" y="-14" type="line"/>
      <point x="255" y="-15" type="line"/>
      <point x="225" y="-5" type="line"/>
      <point x="225" y="0" type="line"/>
      <point x="207" y="8" type="line"/>
      <point x="205" y="21" type="line"/>
      <point x="187" y="21" type="line"/>
      <point x="180" y="30" type="line"/>
      <point x="154" y="45" type="line"/>
      <point x="144" y="62" type="line"/>
      <point x="129" y="72" type="line"/>
      <point x="124" y="69" type="line"/>
      <point x="112" y="81" type="line"/>
      <point x="104" y="108" type="line"/>
      <point x="90" y="122" type="line"/>
      <point x="82" y="150" type="line"/>
      <point x="77" y="151" type="line"/>
      <point x="73" y="173" type="line"/>
      <point x="58" y="188" type="line"/>
      <point x="64" y="195" type="line"/>
      <point x="50" y="218" type="line"/>
      <point x="47" y="240" type="line"/>
      <point x="31" y="263" type="line"/>
      <point x="36" y="268" type="line"/>
      <point x="31" y="290" type="line"/>
      <point x="34" y="314" type="line"/>
      <point x="28" y="320" type="line"/>
      <point x="28" y="350" type="line"/>
      <point x="38" y="369" type="line"/>
      <point x="40" y="396" type="line"/>
      <point x="50" y="419" type="line"/>
      <point x="56" y="423" type="line"/>
      <point x="62" y="452" type="line"/>
      <point x="73" y="459" type="line"/>
      <point x="82" y="478" type="line"/>
      <point x="79" y="481" type="line"/>
      <point x="82" y="501" type="line"/>
      <point x="94" y="514" type="line"/>
      <point x="101" y="537" type="line"/>
      <point x="118" y="555" type="line"/>
      <point x="115" y="559" type="line"/>
      <point x="126" y="559" type="line"/>
      <point x="133" y="574" type="line"/>
      <point x="151" y="589" type="line"/>
      <point x="162" y="589" type="line"/>
      <point x="184" y="613" type="line"/>
      <point x="214" y="630" type="line"/>
      <point x="225" y="643" type="line"/>
      <point x="252" y="652" type="line"/>
      <point x="258" y="645" type="line"/>
      <point x="265" y="652" type="line"/>
      <point x="288" y="653" type="line"/>
      <point x="291" y="663" type="line"/>
      <point x="317" y="663" type="line"/>
      <point x="343" y="656" type="line"/>
      <point x="357" y="661" type="line"/>
      <point x="372" y="649" type="line"/>
      <point x="363" y="640" type="line"/>
      <point x="369" y="624" type="line"/>
      <point x="363" y="619" type="line"/>
      <point x="342" y="627" type="line"/>
      <point x="319" y="621" type="line"/>
      <point x="303" y="609" type="line"/>
      <point x="294" y="613" type="line"/>
      <point x="288" y="611" type="line"/>
      <point x="274" y="624" type="line"/>
      <point x="258" y="621" type="line"/>
      <point x="255" y="607" type="line"/>
      <point x="252" y="609" type="line"/>
      <point x="236" y="600" type="line"/>
      <point x="218" y="575" type="line"/>
      <point x="210" y="574" type="line"/>
      <point x="193" y="550" type="line"/>
      <point x="187" y="532" type="line"/>
      <point x="193" y="523" type="line"/>
      <point x="183" y="503" type="line"/>
      <point x="179" y="477" type="line"/>
      <point x="166" y="464" type="line"/>
      <point x="156" y="431" type="line"/>
      <point x="162" y="427" type="line"/>
      <point x="159" y="411" type="line"/>
      <point x="162" y="406" type="line"/>
      <point x="154" y="403" type="line"/>
      <point x="150" y="374" type="line"/>
      <point x="154" y="335" type="line"/>
      <point x="146" y="335" type="line"/>
      <point x="154" y="314" type="line"/>
      <point x="154" y="275" type="line"/>
      <point x="150" y="275" type="line"/>
      <point x="160" y="233" type="line"/>
      <point x="156" y="223" type="line"/>
      <point x="160" y="201" type="line"/>
      <point x="169" y="189" type="line"/>
      <point x="169" y="175" type="line"/>
      <point x="183" y="140" type="line"/>
      <point x="192" y="134" type="line"/>
      <point x="189" y="108" type="line"/>
      <point x="193" y="83" type="line"/>
      <point x="223" y="60" type="line"/>
      <point x="220" y="53" type="line"/>
      <point x="225" y="51" type="line"/>
      <point x="246" y="26" type="line"/>
      <point x="252" y="30" type="line"/>
      <point x="270" y="21" type="line"/>
      <point x="279" y="38" type="line"/>
      <point x="294" y="34" type="line"/>
      <point x="306" y="39" type="line"/>
      <point x="324" y="26" type="line"/>
      <point x="336" y="33" type="line"/>
      <point x="333" y="51" type="line"/>
      <point x="344" y="78" type="line"/>
      <point x="350" y="78" type="line"/>
      <point x="357" y="105" type="line"/>
      <point x="359" y="126" type="line"/>
      <point x="365" y="122" type="line"/>
      <point x="363" y="160" type="line"/>
      <point x="355" y="164" type="line"/>
      <point x="349" y="177" type="line"/>
      <point x="355" y="191" type="line"/>
      <point x="350" y="214" type="line"/>
      <point x="344" y="220" type="line"/>
      <point x="349" y="243" type="line"/>
      <point x="345" y="250" type="line"/>
      <point x="353" y="271" type="line"/>
      <point x="350" y="284" type="line"/>
      <point x="363" y="291" type="line"/>
      <point x="387" y="286" type="line"/>
      <point x="391" y="292" type="line"/>
      <point x="411" y="299" type="line"/>
      <point x="410" y="304" type="line"/>
      <point x="426" y="295" type="line"/>
      <point x="436" y="279" type="line"/>
      <point x="445" y="275" type="line"/>
      <point x="442" y="250" type="line"/>
    </contour>
    <contour>
      <point x="399" y="126" type="line"/>
      <point x="395" y="128" type="line"/>
      <point x="397" y="143" type="line"/>
      <point x="393" y="156" type="line"/>
      <point x="381" y="156" type="line"/>
      <point x="378" y="141" type="line"/>
      <point x="384" y="137" type="line"/>
      <point x="385" y="119" type="line"/>
      <point x="393" y="116" type="line"/>
    </contour>
    <contour>
      <point x="65" y="303" type="line"/>
      <point x="63" y="324" type="line"/>
      <point x="58" y="334" type="line"/>
      <point x="61" y="361" type="line"/>
      <point x="51" y="356" type="line"/>
      <point x="45" y="358" type="line"/>
      <point x="49" y="347" type="line"/>
      <point x="45" y="334" type="line"/>
      <point x="51" y="308" type="line"/>
      <point x="50" y="286" type="line"/>
      <point x="55" y="278" type="line"/>
      <point x="59" y="286" type="line"/>
      <point x="61" y="305" type="line"/>
    </contour>
  </outline>
</glyph>
<glyph name="H" format="1">
  <advance width="650"/>
  <unicode hex="0048"/>
  <outline>
    <contour>
      <point x="577" y="541" type="line"/>
      <point x="573" y="534" type="line"/>
      <point x="569" y="548" type="line"/>
      <point x="562" y="549" type="line"/>
      <point x="566" y="557" type="line"/>
      <point x="568" y="581" type="line"/>
      <point x="577" y="575" type="line"/>
      <point x="574" y="564" type="line"/>
    </contour>
    <contour>
      <point x="588" y="62" type="line"/>
      <point x="578" y="48" type="line"/>
      <point x="583" y="31" type="line"/>
      <point x="579" y="7" type="line"/>
      <point x="580" y="-7" type="line"/>
      <point x="572" y="-13" type="line"/>
      <point x="566" y="1" type="line"/>
      <point x="573" y="22" type="line"/>
      <point x="567" y="40" type="line"/>
      <point x="559" y="44" type="line"/>
      <point x="563" y="73" type="line"/>
      <point x="568" y="78" type="line"/>
      <point x="559" y="94" type="line"/>
      <point x="570" y="117" type="line"/>
      <point x="563" y="137" type="line"/>
      <point x="568" y="148" type="line"/>
      <point x="570" y="179" type="line"/>
      <point x="576" y="167" type="line"/>
      <point x="573" y="134" type="line"/>
      <point x="580" y="117" type="line"/>
      <point x="577" y="92" type="line"/>
      <point x="582" y="67" type="line"/>
    </contour>
    <contour>
      <point x="580" y="222" type="line"/>
      <point x="573" y="200" type="line"/>
      <point x="561" y="222" type="line"/>
      <point x="559" y="243" type="line"/>
      <point x="550" y="246" type="line"/>
      <point x="537" y="239" type="line"/>
      <point x="538" y="225" type="line"/>
      <point x="533" y="212" type="line"/>
      <point x="541" y="181" type="line"/>
      <point x="542" y="145" type="line"/>
      <point x="537" y="136" type="line"/>
      <point x="542" y="103" type="line"/>
      <point x="538" y="97" type="line"/>
      <point x="544" y="86" type="line"/>
      <point x="535" y="71" type="line"/>
      <point x="540" y="44" type="line"/>
      <point x="534" y="21" type="line"/>
      <point x="523" y="6" type="line"/>
      <point x="520" y="-23" type="line"/>
      <point x="516" y="-32" type="line"/>
      <point x="504" y="-27" type="line"/>
      <point x="504" y="-16" type="line"/>
      <point x="492" y="-10" type="line"/>
      <point x="497" y="17" type="line"/>
      <point x="487" y="35" type="line"/>
      <point x="491" y="55" type="line"/>
      <point x="483" y="60" type="line"/>
      <point x="490" y="77" type="line"/>
      <point x="488" y="111" type="line"/>
      <point x="483" y="127" type="line"/>
      <point x="490" y="137" type="line"/>
      <point x="483" y="150" type="line"/>
      <point x="488" y="170" type="line"/>
      <point x="483" y="188" type="line"/>
      <point x="472" y="195" type="line"/>
      <point x="463" y="189" type="line"/>
      <point x="466" y="167" type="line"/>
      <point x="460" y="161" type="line"/>
      <point x="459" y="143" type="line"/>
      <point x="466" y="127" type="line"/>
      <point x="462" y="105" type="line"/>
      <point x="467" y="85" type="line"/>
      <point x="460" y="81" type="line"/>
      <point x="466" y="67" type="line"/>
      <point x="463" y="53" type="line"/>
      <point x="458" y="47" type="line"/>
      <point x="454" y="56" type="line"/>
      <point x="456" y="73" type="line"/>
      <point x="455" y="103" type="line"/>
      <point x="450" y="126" type="line"/>
      <point x="453" y="156" type="line"/>
      <point x="450" y="179" type="line"/>
      <point x="452" y="203" type="line"/>
      <point x="439" y="221" type="line"/>
      <point x="440" y="229" type="line"/>
      <point x="434" y="242" type="line"/>
      <point x="422" y="248" type="line"/>
      <point x="425" y="257" type="line"/>
      <point x="421" y="277" type="line"/>
      <point x="404" y="290" type="line"/>
      <point x="383" y="290" type="line"/>
      <point x="365" y="302" type="line"/>
      <point x="358" y="299" type="line"/>
      <point x="326" y="302" type="line"/>
      <point x="307" y="297" type="line"/>
      <point x="288" y="300" type="line"/>
      <point x="283" y="293" type="line"/>
      <point x="259" y="295" type="line"/>
      <point x="231" y="283" type="line"/>
      <point x="224" y="265" type="line"/>
      <point x="226" y="251" type="line"/>
      <point x="215" y="246" type="line"/>
      <point x="207" y="229" type="line"/>
      <point x="207" y="213" type="line"/>
      <point x="197" y="199" type="line"/>
      <point x="194" y="167" type="line"/>
      <point x="188" y="163" type="line"/>
      <point x="184" y="179" type="line"/>
      <point x="167" y="184" type="line"/>
      <point x="160" y="167" type="line"/>
      <point x="164" y="156" type="line"/>
      <point x="165" y="122" type="line"/>
      <point x="160" y="103" type="line"/>
      <point x="155" y="112" type="line"/>
      <point x="154" y="86" type="line"/>
      <point x="164" y="70" type="line"/>
      <point x="158" y="60" type="line"/>
      <point x="167" y="56" type="line"/>
      <point x="163" y="33" type="line"/>
      <point x="148" y="20" type="line"/>
      <point x="144" y="-3" type="line"/>
      <point x="148" y="-20" type="line"/>
      <point x="141" y="-27" type="line"/>
      <point x="117" y="-16" type="line"/>
      <point x="123" y="-5" type="line"/>
      <point x="114" y="13" type="line"/>
      <point x="112" y="42" type="line"/>
      <point x="105" y="47" type="line"/>
      <point x="113" y="63" type="line"/>
      <point x="107" y="84" type="line"/>
      <point x="110" y="106" type="line"/>
      <point x="104" y="114" type="line"/>
      <point x="110" y="153" type="line"/>
      <point x="105" y="160" type="line"/>
      <point x="110" y="178" type="line"/>
      <point x="106" y="221" type="line"/>
      <point x="112" y="233" type="line"/>
      <point x="106" y="256" type="line"/>
      <point x="91" y="253" type="line"/>
      <point x="81" y="236" type="line"/>
      <point x="88" y="219" type="line"/>
      <point x="81" y="206" type="line"/>
      <point x="85" y="201" type="line"/>
      <point x="88" y="163" type="line"/>
      <point x="84" y="133" type="line"/>
      <point x="88" y="117" type="line"/>
      <point x="81" y="110" type="line"/>
      <point x="76" y="81" type="line"/>
      <point x="72" y="96" type="line"/>
      <point x="72" y="120" type="line"/>
      <point x="65" y="137" type="line"/>
      <point x="74" y="138" type="line"/>
      <point x="72" y="160" type="line"/>
      <point x="74" y="184" type="line"/>
      <point x="68" y="203" type="line"/>
      <point x="77" y="221" type="line"/>
      <point x="72" y="239" type="line"/>
      <point x="74" y="262" type="line"/>
      <point x="68" y="272" type="line"/>
      <point x="75" y="285" type="line"/>
      <point x="77" y="311" type="line"/>
      <point x="72" y="326" type="line"/>
      <point x="76" y="351" type="line"/>
      <point x="68" y="386" type="line"/>
      <point x="73" y="402" type="line"/>
      <point x="71" y="444" type="line"/>
      <point x="76" y="471" type="line"/>
      <point x="71" y="502" type="line"/>
      <point x="74" y="525" type="line"/>
      <point x="69" y="538" type="line"/>
      <point x="74" y="559" type="line"/>
      <point x="65" y="578" type="line"/>
      <point x="81" y="585" type="line"/>
      <point x="84" y="571" type="line"/>
      <point x="91" y="566" type="line"/>
      <point x="83" y="532" type="line"/>
      <point x="87" y="499" type="line"/>
      <point x="85" y="476" type="line"/>
      <point x="86" y="450" type="line"/>
      <point x="79" y="430" type="line"/>
      <point x="84" y="426" type="line"/>
      <point x="88" y="409" type="line"/>
      <point x="101" y="402" type="line"/>
      <point x="107" y="413" type="line"/>
      <point x="101" y="422" type="line"/>
      <point x="110" y="429" type="line"/>
      <point x="109" y="458" type="line"/>
      <point x="105" y="469" type="line"/>
      <point x="112" y="498" type="line"/>
      <point x="112" y="528" type="line"/>
      <point x="105" y="552" type="line"/>
      <point x="110" y="575" type="line"/>
      <point x="105" y="582" type="line"/>
      <point x="108" y="599" type="line"/>
      <point x="124" y="618" type="line"/>
      <point x="117" y="635" type="line"/>
      <point x="122" y="649" type="line"/>
      <point x="141" y="661" type="line"/>
      <point x="148" y="644" type="line"/>
      <point x="145" y="616" type="line"/>
      <point x="150" y="593" type="line"/>
      <point x="161" y="580" type="line"/>
      <point x="159" y="562" type="line"/>
      <point x="164" y="559" type="line"/>
      <point x="160" y="549" type="line"/>
      <point x="162" y="522" type="line"/>
      <point x="158" y="502" type="line"/>
      <point x="167" y="488" type="line"/>
      <point x="159" y="480" type="line"/>
      <point x="160" y="471" type="line"/>
      <point x="171" y="466" type="line"/>
      <point x="185" y="475" type="line"/>
      <point x="188" y="490" type="line"/>
      <point x="182" y="506" type="line"/>
      <point x="184" y="531" type="line"/>
      <point x="190" y="554" type="line"/>
      <point x="198" y="526" type="line"/>
      <point x="194" y="505" type="line"/>
      <point x="205" y="470" type="line"/>
      <point x="207" y="442" type="line"/>
      <point x="201" y="436" type="line"/>
      <point x="205" y="406" type="line"/>
      <point x="216" y="384" type="line"/>
      <point x="228" y="380" type="line"/>
      <point x="240" y="365" type="line"/>
      <point x="248" y="369" type="line"/>
      <point x="250" y="362" type="line"/>
      <point x="271" y="358" type="line"/>
      <point x="290" y="360" type="line"/>
      <point x="312" y="347" type="line"/>
      <point x="323" y="350" type="line"/>
      <point x="343" y="343" type="line"/>
      <point x="354" y="354" type="line"/>
      <point x="366" y="353" type="line"/>
      <point x="401" y="363" type="line"/>
      <point x="415" y="362" type="line"/>
      <point x="433" y="371" type="line"/>
      <point x="438" y="383" type="line"/>
      <point x="437" y="397" type="line"/>
      <point x="447" y="416" type="line"/>
      <point x="440" y="429" type="line"/>
      <point x="450" y="449" type="line"/>
      <point x="454" y="488" type="line"/>
      <point x="450" y="512" type="line"/>
      <point x="456" y="549" type="line"/>
      <point x="450" y="566" type="line"/>
      <point x="461" y="582" type="line"/>
      <point x="462" y="568" type="line"/>
      <point x="467" y="561" type="line"/>
      <point x="466" y="521" type="line"/>
      <point x="462" y="502" type="line"/>
      <point x="463" y="480" type="line"/>
      <point x="473" y="469" type="line"/>
      <point x="482" y="475" type="line"/>
      <point x="488" y="492" type="line"/>
      <point x="485" y="509" type="line"/>
      <point x="490" y="545" type="line"/>
      <point x="483" y="561" type="line"/>
      <point x="489" y="565" type="line"/>
      <point x="487" y="585" type="line"/>
      <point x="492" y="611" type="line"/>
      <point x="501" y="617" type="line"/>
      <point x="497" y="632" type="line"/>
      <point x="509" y="654" type="line"/>
      <point x="526" y="651" type="line"/>
      <point x="523" y="644" type="line"/>
      <point x="533" y="623" type="line"/>
      <point x="533" y="599" type="line"/>
      <point x="539" y="576" type="line"/>
      <point x="537" y="552" type="line"/>
      <point x="542" y="549" type="line"/>
      <point x="535" y="533" type="line"/>
      <point x="542" y="516" type="line"/>
      <point x="539" y="494" type="line"/>
      <point x="546" y="485" type="line"/>
      <point x="537" y="477" type="line"/>
      <point x="537" y="459" type="line"/>
      <point x="544" y="441" type="line"/>
      <point x="542" y="416" type="line"/>
      <point x="556" y="408" type="line"/>
      <point x="562" y="416" type="line"/>
      <point x="570" y="420" type="line"/>
      <point x="566" y="438" type="line"/>
      <point x="570" y="459" type="line"/>
      <point x="563" y="483" type="line"/>
      <point x="563" y="509" type="line"/>
      <point x="566" y="519" type="line"/>
      <point x="574" y="512" type="line"/>
      <point x="573" y="502" type="line"/>
      <point x="580" y="492" type="line"/>
      <point x="573" y="483" type="line"/>
      <point x="580" y="459" type="line"/>
      <point x="575" y="446" type="line"/>
      <point x="579" y="442" type="line"/>
      <point x="580" y="413" type="line"/>
      <point x="574" y="406" type="line"/>
      <point x="571" y="388" type="line"/>
      <point x="564" y="384" type="line"/>
      <point x="565" y="362" type="line"/>
      <point x="575" y="349" type="line"/>
      <point x="570" y="327" type="line"/>
      <point x="575" y="304" type="line"/>
      <point x="570" y="289" type="line"/>
      <point x="577" y="278" type="line"/>
      <point x="578" y="252" type="line"/>
      <point x="572" y="232" type="line"/>
    </contour>
    <contour>
      <point x="200" y="113" type="line"/>
      <point x="194" y="89" type="line"/>
      <point x="198" y="80" type="line"/>
      <point x="197" y="55" type="line"/>
      <point x="193" y="38" type="line"/>
      <point x="190" y="67" type="line"/>
      <point x="186" y="70" type="line"/>
      <point x="191" y="110" type="line"/>
      <point x="184" y="106" type="line"/>
      <point x="184" y="129" type="line"/>
      <point x="191" y="146" type="line"/>
      <point x="200" y="134" type="line"/>
      <point x="194" y="127" type="line"/>
    </contour>
  </outline>
</glyph>
